<svg width="115" height="68" viewBox="0 0 115 68" fill="none" xmlns="http://www.w3.org/2000/svg">
<path d="M110.954 1.03425H9.13041C7.59226 1.03425 6.34534 2.28273 6.34534 3.82282V64.2836C6.34534 65.8237 7.59226 67.0722 9.13041 67.0722H110.954C112.492 67.0722 113.739 65.8237 113.739 64.2836V3.82282C113.739 2.28273 112.492 1.03425 110.954 1.03425Z" fill="#093F68"/>
<path d="M110.949 67.5546H9.13044C8.26439 67.5534 7.43418 67.2083 6.82179 66.5952C6.2094 65.982 5.8648 65.1508 5.86353 64.2836V3.82282C5.8648 2.95568 6.2094 2.12443 6.82179 1.51127C7.43418 0.898108 8.26439 0.553074 9.13044 0.551797H110.949C111.38 0.549893 111.806 0.633059 112.205 0.796531C112.603 0.960003 112.965 1.20057 113.27 1.50444C113.576 1.8083 113.818 2.16951 113.984 2.56734C114.149 2.96517 114.235 3.39181 114.235 3.82282V64.2836C114.235 64.7146 114.149 65.1413 113.984 65.5391C113.818 65.9369 113.576 66.2981 113.27 66.602C112.965 66.9059 112.603 67.1464 112.205 67.3099C111.806 67.4734 111.38 67.5566 110.949 67.5546V67.5546ZM9.13044 1.5167C8.51998 1.51797 7.93489 1.76135 7.50322 2.19356C7.07156 2.62576 6.82849 3.21159 6.82722 3.82282V64.2836C6.82849 64.8949 7.07156 65.4807 7.50322 65.9129C7.93489 66.3451 8.51998 66.5885 9.13044 66.5897H110.949C111.56 66.5885 112.145 66.3451 112.576 65.9129C113.008 65.4807 113.251 64.8949 113.252 64.2836V3.82282C113.251 3.21159 113.008 2.62576 112.576 2.19356C112.145 1.76135 111.56 1.51797 110.949 1.5167H9.13044Z" fill="#093F68"/>
<path d="M6.34539 11.0837H57.7342V67.0481H9.26056C8.48613 67.0481 7.74342 66.7401 7.19582 66.1918C6.64822 65.6435 6.34058 64.8998 6.34058 64.1244V11.0548L6.34539 11.0837Z" fill="#68E1FD"/>
<path d="M57.7343 67.5547H9.26061C8.36341 67.547 7.50555 67.1848 6.87383 66.5469C6.2421 65.9089 5.88766 65.0469 5.8877 64.1486V11.0789C5.8877 10.9509 5.93846 10.8282 6.02882 10.7377C6.11919 10.6473 6.24175 10.5964 6.36954 10.5964H57.7343C57.8621 10.5964 57.9846 10.6473 58.075 10.7377C58.1653 10.8282 58.2161 10.9509 58.2161 11.0789V67.0722C58.2161 67.2002 58.1653 67.3229 58.075 67.4134C57.9846 67.5038 57.8621 67.5547 57.7343 67.5547ZM6.82729 11.5903V64.1775C6.82725 64.82 7.08015 65.4365 7.53116 65.8935C7.98216 66.3505 8.59491 66.6111 9.23652 66.6187H57.2283V11.6192L6.82729 11.5903Z" fill="#093F68"/>
<path d="M73.4038 16.8876H64.2776C64.1498 16.8876 64.0273 16.8368 63.9369 16.7463C63.8465 16.6558 63.7958 16.5331 63.7958 16.4052C63.7958 16.2772 63.8465 16.1545 63.9369 16.064C64.0273 15.9735 64.1498 15.9227 64.2776 15.9227H73.4038C73.5316 15.9227 73.6541 15.9735 73.7445 16.064C73.8348 16.1545 73.8856 16.2772 73.8856 16.4052C73.8856 16.5331 73.8348 16.6558 73.7445 16.7463C73.6541 16.8368 73.5316 16.8876 73.4038 16.8876Z" fill="white"/>
<path d="M86.0137 22.5998H67.2747C67.1469 22.5998 67.0243 22.549 66.934 22.4585C66.8436 22.368 66.7928 22.2453 66.7928 22.1174C66.7928 21.9894 66.8436 21.8667 66.934 21.7762C67.0243 21.6858 67.1469 21.6349 67.2747 21.6349H86.0137C86.1415 21.6349 86.264 21.6858 86.3544 21.7762C86.4447 21.8667 86.4955 21.9894 86.4955 22.1174C86.4955 22.2453 86.4447 22.368 86.3544 22.4585C86.264 22.549 86.1415 22.5998 86.0137 22.5998Z" fill="#FFBC0E"/>
<path d="M81.3639 28.3121H67.2747C67.1469 28.3121 67.0243 28.2612 66.934 28.1708C66.8436 28.0803 66.7928 27.9576 66.7928 27.8296C66.7928 27.7017 66.8436 27.5789 66.934 27.4885C67.0243 27.398 67.1469 27.3472 67.2747 27.3472H81.3639C81.4917 27.3472 81.6142 27.398 81.7046 27.4885C81.7949 27.5789 81.8457 27.7017 81.8457 27.8296C81.8457 27.9576 81.7949 28.0803 81.7046 28.1708C81.6142 28.2612 81.4917 28.3121 81.3639 28.3121Z" fill="#FFBC0E"/>
<path d="M73.929 34.0243H65.8388C65.711 34.0243 65.5884 33.9735 65.4981 33.883C65.4077 33.7925 65.3569 33.6698 65.3569 33.5418C65.3569 33.4139 65.4077 33.2912 65.4981 33.2007C65.5884 33.1102 65.711 33.0594 65.8388 33.0594H73.929C74.0568 33.0594 74.1793 33.1102 74.2697 33.2007C74.36 33.2912 74.4108 33.4139 74.4108 33.5418C74.4108 33.6698 74.36 33.7925 74.2697 33.883C74.1793 33.9735 74.0568 34.0243 73.929 34.0243Z" fill="white"/>
<path d="M77.1333 39.7365H68.0168C67.889 39.7365 67.7664 39.6857 67.676 39.5952C67.5857 39.5047 67.5349 39.382 67.5349 39.2541C67.5349 39.1261 67.5857 39.0034 67.676 38.9129C67.7664 38.8224 67.889 38.7716 68.0168 38.7716H77.1333C77.2611 38.7716 77.3836 38.8224 77.474 38.9129C77.5644 39.0034 77.6151 39.1261 77.6151 39.2541C77.6151 39.382 77.5644 39.5047 77.474 39.5952C77.3836 39.6857 77.2611 39.7365 77.1333 39.7365Z" fill="#F56132"/>
<path d="M81.7976 45.4536H67.6988C67.571 45.4536 67.4484 45.4027 67.358 45.3122C67.2677 45.2218 67.2169 45.0991 67.2169 44.9711C67.2169 44.8431 67.2677 44.7204 67.358 44.63C67.4484 44.5395 67.571 44.4886 67.6988 44.4886H81.7976C81.9253 44.4886 82.0479 44.5395 82.1383 44.63C82.2286 44.7204 82.2794 44.8431 82.2794 44.9711C82.2794 45.0991 82.2286 45.2218 82.1383 45.3122C82.0479 45.4027 81.9253 45.4536 81.7976 45.4536V45.4536Z" fill="white"/>
<path d="M71.1246 51.1658H64.2776C64.1498 51.1658 64.0273 51.115 63.9369 51.0245C63.8465 50.934 63.7958 50.8113 63.7958 50.6833C63.7958 50.5554 63.8465 50.4327 63.9369 50.3422C64.0273 50.2517 64.1498 50.2009 64.2776 50.2009H71.1246C71.2524 50.2009 71.375 50.2517 71.4654 50.3422C71.5557 50.4327 71.6065 50.5554 71.6065 50.6833C71.6065 50.8113 71.5557 50.934 71.4654 51.0245C71.375 51.115 71.2524 51.1658 71.1246 51.1658Z" fill="white"/>
<path d="M81.7976 56.878H66.7978C66.67 56.878 66.5474 56.8272 66.457 56.7367C66.3667 56.6462 66.3159 56.5235 66.3159 56.3956C66.3159 56.2676 66.3667 56.1449 66.457 56.0544C66.5474 55.9639 66.67 55.9131 66.7978 55.9131H81.7976C81.9254 55.9131 82.048 55.9639 82.1383 56.0544C82.2287 56.1449 82.2794 56.2676 82.2794 56.3956C82.2794 56.5235 82.2287 56.6462 82.1383 56.7367C82.048 56.8272 81.9254 56.878 81.7976 56.878Z" fill="#70CC40"/>
<path d="M96.1662 56.878H86.3173C86.1895 56.878 86.0669 56.8272 85.9766 56.7367C85.8862 56.6462 85.8354 56.5235 85.8354 56.3956C85.8354 56.2676 85.8862 56.1449 85.9766 56.0544C86.0669 55.9639 86.1895 55.9131 86.3173 55.9131H96.1662C96.294 55.9131 96.4166 55.9639 96.5069 56.0544C96.5973 56.1449 96.6481 56.2676 96.6481 56.3956C96.6481 56.5235 96.5973 56.6462 96.5069 56.7367C96.4166 56.8272 96.294 56.878 96.1662 56.878Z" fill="#FFBC0E"/>
<path d="M92.9716 28.3121H86.0137C85.8859 28.3121 85.7634 28.2612 85.673 28.1708C85.5826 28.0803 85.5319 27.9576 85.5319 27.8296C85.5319 27.7017 85.5826 27.5789 85.673 27.4885C85.7634 27.398 85.8859 27.3472 86.0137 27.3472H92.9716C93.0993 27.3472 93.2219 27.398 93.3123 27.4885C93.4026 27.5789 93.4534 27.7017 93.4534 27.8296C93.4534 27.9576 93.4026 28.0803 93.3123 28.1708C93.2219 28.2612 93.0993 28.3121 92.9716 28.3121Z" fill="white"/>
<path d="M102.883 22.5998H89.4926C89.3648 22.5998 89.2422 22.549 89.1519 22.4585C89.0615 22.368 89.0107 22.2453 89.0107 22.1174C89.0107 21.9894 89.0615 21.8667 89.1519 21.7762C89.2422 21.6858 89.3648 21.6349 89.4926 21.6349H102.883C103.011 21.6349 103.133 21.6858 103.224 21.7762C103.314 21.8667 103.365 21.9894 103.365 22.1174C103.365 22.2453 103.314 22.368 103.224 22.4585C103.133 22.549 103.011 22.5998 102.883 22.5998Z" fill="#68E1FD"/>
<path d="M100.667 28.3121H96.7541C96.6263 28.3121 96.5037 28.2612 96.4133 28.1708C96.323 28.0803 96.2722 27.9576 96.2722 27.8296C96.2722 27.7017 96.323 27.5789 96.4133 27.4885C96.5037 27.398 96.6263 27.3472 96.7541 27.3472H100.667C100.794 27.3472 100.917 27.398 101.007 27.4885C101.098 27.5789 101.148 27.7017 101.148 27.8296C101.148 27.9576 101.098 28.0803 101.007 28.1708C100.917 28.2612 100.794 28.3121 100.667 28.3121Z" fill="#F56132"/>
<path d="M83.7538 39.7365H79.8412C79.7134 39.7365 79.5909 39.6857 79.5005 39.5952C79.4101 39.5047 79.3594 39.382 79.3594 39.2541C79.3594 39.1261 79.4101 39.0034 79.5005 38.9129C79.5909 38.8224 79.7134 38.7716 79.8412 38.7716H83.7538C83.8816 38.7716 84.0042 38.8224 84.0945 38.9129C84.1849 39.0034 84.2357 39.1261 84.2357 39.2541C84.2357 39.382 84.1849 39.5047 84.0945 39.5952C84.0042 39.6857 83.8816 39.7365 83.7538 39.7365Z" fill="#F56132"/>
<path d="M102.883 39.7365H86.9822C86.8544 39.7365 86.7319 39.6857 86.6415 39.5952C86.5511 39.5047 86.5004 39.382 86.5004 39.2541C86.5004 39.1261 86.5511 39.0034 86.6415 38.9129C86.7319 38.8224 86.8544 38.7716 86.9822 38.7716H102.883C103.011 38.7716 103.133 38.8224 103.224 38.9129C103.314 39.0034 103.365 39.1261 103.365 39.2541C103.365 39.382 103.314 39.5047 103.224 39.5952C103.133 39.6857 103.011 39.7365 102.883 39.7365Z" fill="#FFBC0E"/>
<path d="M89.4926 45.4536H86.0137C85.8859 45.4536 85.7634 45.4027 85.673 45.3122C85.5826 45.2218 85.5319 45.0991 85.5319 44.9711C85.5319 44.8431 85.5826 44.7204 85.673 44.63C85.7634 44.5395 85.8859 44.4886 86.0137 44.4886H89.4926C89.6204 44.4886 89.743 44.5395 89.8334 44.63C89.9237 44.7204 89.9745 44.8431 89.9745 44.9711C89.9745 45.0991 89.9237 45.2218 89.8334 45.3122C89.743 45.4027 89.6204 45.4536 89.4926 45.4536Z" fill="#68E1FD"/>
<path d="M102.883 56.878H100.667C100.539 56.878 100.416 56.8272 100.326 56.7367C100.236 56.6462 100.185 56.5235 100.185 56.3956C100.185 56.2676 100.236 56.1449 100.326 56.0544C100.416 55.9639 100.539 55.9131 100.667 55.9131H102.883C103.011 55.9131 103.133 55.9639 103.224 56.0544C103.314 56.1449 103.365 56.2676 103.365 56.3956C103.365 56.5235 103.314 56.6462 103.224 56.7367C103.133 56.8272 103.011 56.878 102.883 56.878Z" fill="white"/>
<path d="M13.6116 8.08287C14.5483 8.08287 15.3077 7.32255 15.3077 6.38464C15.3077 5.44673 14.5483 4.68641 13.6116 4.68641C12.6749 4.68641 11.9155 5.44673 11.9155 6.38464C11.9155 7.32255 12.6749 8.08287 13.6116 8.08287Z" fill="#F56132"/>
<path d="M13.6116 8.56533C13.1806 8.56628 12.7591 8.4392 12.4003 8.20016C12.0415 7.96113 11.7616 7.62089 11.596 7.2225C11.4304 6.82412 11.3866 6.38551 11.4701 5.96218C11.5536 5.53885 11.7606 5.14984 12.065 4.84438C12.3694 4.53892 12.7575 4.33076 13.1801 4.24622C13.6027 4.16169 14.0409 4.20459 14.4391 4.3695C14.8374 4.5344 15.1778 4.81391 15.4173 5.17262C15.6569 5.53134 15.7847 5.95314 15.7847 6.38464C15.7835 6.96177 15.5542 7.51497 15.1471 7.92352C14.74 8.33206 14.188 8.56278 13.6116 8.56533V8.56533ZM13.6116 5.18816C13.3712 5.18721 13.136 5.2577 12.9357 5.39071C12.7354 5.52372 12.579 5.71326 12.4863 5.93533C12.3937 6.1574 12.369 6.402 12.4153 6.63816C12.4616 6.87431 12.5768 7.09139 12.7465 7.26191C12.9161 7.43242 13.1324 7.54869 13.3681 7.59599C13.6038 7.6433 13.8482 7.61951 14.0703 7.52763C14.2925 7.43575 14.4824 7.27993 14.6161 7.07989C14.7497 6.87985 14.821 6.64461 14.821 6.40394C14.8236 6.24307 14.7942 6.0833 14.7346 5.93387C14.6751 5.78445 14.5865 5.64835 14.474 5.53347C14.3615 5.41859 14.2273 5.3272 14.0793 5.26462C13.9312 5.20203 13.7723 5.16948 13.6116 5.16886V5.18816Z" fill="#093F68"/>
<path d="M20.4538 8.08287C21.3905 8.08287 22.1499 7.32255 22.1499 6.38464C22.1499 5.44673 21.3905 4.68641 20.4538 4.68641C19.5171 4.68641 18.7577 5.44673 18.7577 6.38464C18.7577 7.32255 19.5171 8.08287 20.4538 8.08287Z" fill="#FFBC0E"/>
<path d="M20.4538 8.56532C20.0231 8.56532 19.602 8.43742 19.2438 8.1978C18.8857 7.95819 18.6065 7.61761 18.4417 7.21915C18.2768 6.82068 18.2337 6.38222 18.3177 5.95921C18.4018 5.5362 18.6092 5.14764 18.9138 4.84266C19.2184 4.53769 19.6064 4.33 20.0289 4.24586C20.4514 4.16172 20.8893 4.2049 21.2873 4.36995C21.6853 4.535 22.0254 4.81451 22.2647 5.17312C22.504 5.53173 22.6318 5.95334 22.6318 6.38464C22.6305 6.9626 22.4006 7.51652 21.9925 7.9252C21.5843 8.33388 21.0311 8.56404 20.4538 8.56532V8.56532ZM20.4538 5.18816C20.2137 5.18816 19.9789 5.25946 19.7792 5.39305C19.5795 5.52664 19.4239 5.71652 19.332 5.93868C19.2401 6.16083 19.2161 6.40528 19.2629 6.64112C19.3098 6.87696 19.4254 7.09359 19.5952 7.26362C19.765 7.43365 19.9814 7.54944 20.2169 7.59635C20.4525 7.64326 20.6966 7.61918 20.9185 7.52716C21.1404 7.43515 21.33 7.27932 21.4634 7.07938C21.5969 6.87945 21.6681 6.64439 21.6681 6.40394C21.6706 6.24266 21.6411 6.08249 21.5812 5.93275C21.5214 5.78301 21.4323 5.6467 21.3193 5.53175C21.2063 5.4168 21.0716 5.32552 20.923 5.26322C20.7744 5.20091 20.6149 5.16884 20.4538 5.16886V5.18816Z" fill="#093F68"/>
<path d="M27.2961 8.08287C28.2328 8.08287 28.9922 7.32255 28.9922 6.38464C28.9922 5.44673 28.2328 4.68641 27.2961 4.68641C26.3593 4.68641 25.6 5.44673 25.6 6.38464C25.6 7.32255 26.3593 8.08287 27.2961 8.08287Z" fill="#70CC40"/>
<path d="M27.296 8.56532C26.8652 8.56532 26.4441 8.43742 26.086 8.1978C25.7278 7.95819 25.4487 7.61761 25.2838 7.21915C25.119 6.82068 25.0759 6.38222 25.1599 5.95921C25.2439 5.5362 25.4514 5.14764 25.7559 4.84266C26.0605 4.53769 26.4486 4.33 26.8711 4.24586C27.2936 4.16172 27.7315 4.2049 28.1294 4.36995C28.5274 4.535 28.8676 4.81451 29.1069 5.17312C29.3462 5.53173 29.4739 5.95334 29.4739 6.38464C29.4739 6.96299 29.2445 7.51765 28.836 7.92661C28.4276 8.33557 27.8736 8.56532 27.296 8.56532ZM27.296 5.18816C27.0558 5.18816 26.8211 5.25946 26.6214 5.39305C26.4217 5.52664 26.2661 5.71652 26.1742 5.93868C26.0823 6.16083 26.0582 6.40528 26.1051 6.64112C26.1519 6.87696 26.2676 7.09359 26.4374 7.26362C26.6072 7.43365 26.8236 7.54944 27.0591 7.59635C27.2946 7.64326 27.5388 7.61918 27.7607 7.52716C27.9825 7.43515 28.1722 7.27932 28.3056 7.07938C28.439 6.87945 28.5102 6.64439 28.5102 6.40394C28.5134 6.24249 28.4844 6.08202 28.4247 5.93199C28.3651 5.78195 28.2761 5.64538 28.1629 5.5303C28.0498 5.41522 27.9148 5.32396 27.7659 5.26188C27.617 5.19981 27.4573 5.16818 27.296 5.16886V5.18816Z" fill="#093F68"/>
<path d="M22.2029 58.3977C21.9981 58.1952 21.8398 57.9505 21.7391 57.6805C21.6384 57.4106 21.5977 57.1219 21.6198 56.8346V53.3513C21.6576 53.033 21.5694 52.7126 21.3741 52.4587C21.0935 52.2625 20.7498 52.1781 20.4104 52.2224V50.5289C20.7497 50.5708 21.0926 50.4867 21.3741 50.2925C21.5683 50.0363 21.6564 49.7148 21.6198 49.3952V45.9312C21.5987 45.644 21.6399 45.3555 21.7405 45.0857C21.8412 44.8159 21.9989 44.5711 22.2029 44.368C22.618 44.006 23.1563 43.8177 23.7062 43.8422H24.7615V45.5356H24.4579C24.3185 45.5242 24.1784 45.5448 24.0481 45.5958C23.9179 45.6468 23.801 45.7269 23.7062 45.8299C23.5105 46.1401 23.424 46.5069 23.4605 46.872V49.6991C23.5009 50.0671 23.407 50.4372 23.1963 50.7413C22.9855 51.0455 22.6721 51.263 22.3137 51.3539V51.4215C22.6719 51.5143 22.9849 51.733 23.1954 52.0377C23.406 52.3424 23.5 52.7127 23.4605 53.0811V55.9035C23.4244 56.27 23.5109 56.6382 23.7062 56.9504C23.8018 57.052 23.919 57.1307 24.0491 57.1808C24.1793 57.2309 24.319 57.2511 24.4579 57.2398H24.7615V58.9381H23.7062C23.1543 58.9585 22.6158 58.765 22.2029 58.3977V58.3977Z" fill="#093F68"/>
<path d="M33.6082 44.8022H35.3958L30.2064 57.9876H28.4187L33.6082 44.8022Z" fill="#093F68"/>
<path d="M39.0675 57.2109H39.3662C39.5052 57.2221 39.6449 57.202 39.775 57.1519C39.9051 57.1017 40.0223 57.023 40.1179 56.9214C40.3133 56.6093 40.3997 56.2411 40.3637 55.8745V53.0522C40.3296 52.693 40.4223 52.3332 40.6257 52.0353C40.829 51.7374 41.1301 51.5202 41.4767 51.4215V51.3829C41.1184 51.292 40.8049 51.0744 40.5941 50.7703C40.3834 50.4662 40.2896 50.096 40.3299 49.7281V46.9009C40.3664 46.5358 40.2799 46.169 40.0842 45.8588C39.9895 45.7558 39.8725 45.6758 39.7423 45.6248C39.6121 45.5738 39.4719 45.5532 39.3325 45.5645H39.0675V43.8711H40.1179C40.6679 43.8467 41.2062 44.035 41.6213 44.397C41.8253 44.6 41.983 44.8449 42.0836 45.1147C42.1843 45.3845 42.2254 45.6729 42.2043 45.9601V49.4241C42.1678 49.7438 42.2558 50.0652 42.4501 50.3215C42.7316 50.5157 43.0745 50.5998 43.4137 50.5579V52.2513C43.0743 52.2071 42.7306 52.2914 42.4501 52.4877C42.2547 52.7416 42.1665 53.062 42.2043 53.3802V56.8442C42.2264 57.1316 42.1857 57.4202 42.085 57.6902C41.9843 57.9602 41.8261 58.2049 41.6213 58.4074C41.2069 58.7711 40.6685 58.9612 40.1179 58.9381H39.0675V57.2109Z" fill="#093F68"/>
<path d="M41.5345 15.2135H2.76525C1.58369 15.2135 0.625854 16.1725 0.625854 17.3556V36.3063C0.625854 37.4893 1.58369 38.4484 2.76525 38.4484H41.5345C42.7161 38.4484 43.6739 37.4893 43.6739 36.3063V17.3556C43.6739 16.1725 42.7161 15.2135 41.5345 15.2135Z" fill="white"/>
<path d="M41.5346 38.9308H2.76046C2.06694 38.9295 1.40218 38.6531 0.911782 38.1621C0.421384 37.6711 0.145317 37.0055 0.144043 36.3111V17.3556C0.150386 16.6645 0.428687 16.0039 0.918539 15.517C1.40839 15.0302 2.07026 14.7564 2.76046 14.7552H41.5346C42.2289 14.7565 42.8944 15.0335 43.3849 15.5256C43.8755 16.0176 44.151 16.6845 44.151 17.3797V36.3352C44.1434 37.0254 43.8645 37.6849 43.3748 38.1707C42.8851 38.6565 42.2239 38.9296 41.5346 38.9308V38.9308ZM2.76046 15.7201C2.32169 15.7214 1.90132 15.8968 1.59151 16.2079C1.2817 16.519 1.10773 16.9404 1.10773 17.3797V36.3352C1.10901 36.7737 1.28354 37.1939 1.59321 37.5039C1.90288 37.814 2.32252 37.9888 2.76046 37.99H41.5346C41.9725 37.9888 42.3921 37.814 42.7018 37.5039C43.0115 37.1939 43.186 36.7737 43.1873 36.3352V17.3556C43.1873 16.9163 43.0133 16.4949 42.7035 16.1838C42.3937 15.8726 41.9733 15.6972 41.5346 15.696L2.76046 15.7201Z" fill="#093F68"/>
<path d="M16.2329 25.2823C16.0057 25.0042 15.717 24.7829 15.3896 24.6358C15.0103 24.4837 14.6047 24.4084 14.1961 24.4142C13.7876 24.42 13.3842 24.5068 13.0093 24.6696C12.6422 24.8361 12.314 25.0777 12.0456 25.3788C11.7625 25.6955 11.5432 26.0641 11.4 26.4643C11.2429 26.9021 11.1646 27.3644 11.1687 27.8296C11.163 28.2965 11.2413 28.7607 11.4 29.1998C11.5427 29.5966 11.7585 29.9632 12.036 30.2805C12.3057 30.5813 12.6335 30.8242 12.9997 30.9945C13.3685 31.1633 13.7699 31.2489 14.1754 31.2454C14.618 31.2563 15.056 31.1533 15.4475 30.9462C15.8183 30.7479 16.1331 30.4592 16.363 30.1068L18.2904 31.5541C17.8598 32.1652 17.2697 32.6458 16.5846 32.9436C15.9144 33.2429 15.1887 33.3974 14.4549 33.3971C13.6747 33.4049 12.8996 33.2725 12.1661 33.0063C11.492 32.7613 10.8754 32.3804 10.3544 31.887C9.83792 31.3908 9.4323 30.7906 9.16421 30.1261C8.59875 28.6408 8.59875 26.9991 9.16421 25.5138C9.4323 24.8493 9.83792 24.2492 10.3544 23.7529C10.8754 23.2595 11.492 22.8786 12.1661 22.6336C12.8996 22.3674 13.6747 22.235 14.4549 22.2428C14.7778 22.2435 15.1001 22.2709 15.4186 22.3248C15.7475 22.3821 16.0703 22.471 16.3822 22.5902C16.7024 22.7142 17.0065 22.8761 17.2881 23.0726C17.5821 23.2783 17.845 23.5253 18.0687 23.806L16.2329 25.2823Z" fill="#093F68"/>
<path d="M24.7953 25.1182C24.595 24.8693 24.3273 24.6834 24.0243 24.5827C23.729 24.476 23.418 24.4189 23.104 24.4139C22.9274 24.4148 22.7514 24.4342 22.5788 24.4717C22.4103 24.5119 22.2481 24.5752 22.097 24.6599C21.943 24.7415 21.8096 24.8569 21.7067 24.9976C21.5799 25.1936 21.5309 25.4299 21.5692 25.6602C21.6076 25.8905 21.7305 26.0981 21.9139 26.2423C22.1935 26.4297 22.4986 26.5759 22.8197 26.6766C23.1859 26.7972 23.5762 26.9178 23.9954 27.0336C24.4083 27.1508 24.8037 27.3228 25.1711 27.545C25.5358 27.7669 25.8456 28.0688 26.077 28.4278C26.3387 28.8777 26.4642 29.3939 26.4384 29.9138C26.451 30.4475 26.337 30.9766 26.1059 31.4576C25.8971 31.8867 25.592 32.2615 25.2145 32.5528C24.8269 32.8498 24.3849 33.0678 23.9135 33.1945C23.4038 33.3374 22.8768 33.4089 22.3475 33.4067C21.6914 33.4142 21.0391 33.3064 20.4201 33.0883C19.8068 32.866 19.2458 32.5195 18.7722 32.0704L20.4346 30.2419C20.6709 30.5604 20.9821 30.8155 21.3405 30.9848C21.6919 31.1556 22.0773 31.2447 22.468 31.2454C22.6628 31.2467 22.857 31.224 23.0462 31.1778C23.2308 31.1382 23.408 31.0698 23.5714 30.9752C23.7208 30.8926 23.8481 30.7751 23.9424 30.6327C24.0382 30.4902 24.0886 30.322 24.087 30.1502C24.0925 30.0043 24.0619 29.8592 23.998 29.7279C23.9342 29.5967 23.8389 29.4832 23.7208 29.3976C23.4407 29.1901 23.1303 29.0274 22.8004 28.9151C22.4278 28.7833 22.0279 28.653 21.6007 28.5243C21.1819 28.3997 20.7805 28.2231 20.4057 27.9985C20.0363 27.7836 19.7214 27.4865 19.4853 27.1301C19.2225 26.7036 19.0948 26.2074 19.1191 25.7068C19.1031 25.2098 19.2068 24.7162 19.4215 24.2678C19.6362 23.8193 19.9556 23.4293 20.3527 23.1305C20.74 22.8327 21.1797 22.6102 21.6488 22.4744C22.1385 22.3297 22.6465 22.2566 23.157 22.2573C23.7462 22.2563 24.3324 22.3425 24.8965 22.513C25.456 22.6827 25.971 22.9743 26.4046 23.3669L24.7953 25.1182Z" fill="#093F68"/>
<path d="M33.3866 25.1182C33.1863 24.8693 32.9186 24.6834 32.6156 24.5827C32.3203 24.476 32.0093 24.419 31.6953 24.4139C31.5187 24.4148 31.3427 24.4342 31.1701 24.4717C30.9933 24.5098 30.8229 24.5731 30.6642 24.6599C30.5102 24.7415 30.3768 24.8569 30.2739 24.9976C30.1465 25.1938 30.0977 25.4308 30.137 25.6615C30.1762 25.8921 30.3008 26.0995 30.4859 26.2423C30.7633 26.4306 31.0669 26.5769 31.3869 26.6766C31.7531 26.7972 32.1434 26.9178 32.5626 27.0336C32.9758 27.1501 33.3713 27.3221 33.7383 27.545C34.103 27.7669 34.4128 28.0688 34.6442 28.4278C34.9059 28.8777 35.0314 29.3939 35.0056 29.9138C35.0182 30.4475 34.9042 30.9766 34.6731 31.4576C34.4644 31.8867 34.1592 32.2615 33.7817 32.5528C33.3941 32.8498 32.9521 33.0678 32.4807 33.1945C31.9726 33.3371 31.4472 33.4086 30.9195 33.4068C30.2634 33.4141 29.6111 33.3063 28.9921 33.0883C28.3788 32.866 27.8178 32.5195 27.3442 32.0704L29.0066 30.2419C29.2429 30.5604 29.5541 30.8155 29.9125 30.9848C30.2656 31.1557 30.6526 31.2448 31.0448 31.2454C31.238 31.2465 31.4306 31.2238 31.6182 31.1778C31.803 31.139 31.9804 31.0706 32.1434 30.9752C32.2933 30.8914 32.4219 30.7742 32.5193 30.6327C32.6389 30.4322 32.6819 30.1951 32.6403 29.9653C32.5986 29.7355 32.4752 29.5287 32.2928 29.3831C32.0135 29.1745 31.7028 29.0117 31.3725 28.9007C30.9998 28.7688 30.5999 28.6385 30.1727 28.5099C29.754 28.3852 29.3525 28.2086 28.9777 27.984C28.6093 27.7679 28.2946 27.471 28.0574 27.1156C27.7945 26.6891 27.6668 26.1929 27.6912 25.6923C27.6779 25.1957 27.7829 24.7031 27.9974 24.2551C28.2118 23.8072 28.5297 23.4167 28.9247 23.1161C29.3121 22.8183 29.7517 22.5957 30.2209 22.4599C30.7105 22.3152 31.2185 22.2421 31.729 22.2428C32.3183 22.2418 32.9044 22.328 33.4685 22.4985C34.029 22.6692 34.5455 22.9607 34.9815 23.3525L33.3866 25.1182Z" fill="#093F68"/>
<path d="M43.168 19.3626H0.625888C0.498095 19.3626 0.375535 19.3118 0.285172 19.2213C0.194808 19.1308 0.144043 19.0081 0.144043 18.8801C0.144043 18.7522 0.194808 18.6295 0.285172 18.539C0.375535 18.4485 0.498095 18.3977 0.625888 18.3977H43.168C43.2958 18.3977 43.4184 18.4485 43.5087 18.539C43.5991 18.6295 43.6499 18.7522 43.6499 18.8801C43.6499 19.0081 43.5991 19.1308 43.5087 19.2213C43.4184 19.3118 43.2958 19.3626 43.168 19.3626Z" fill="#093F68"/>
</svg>
