<svg width="80" height="84" viewBox="0 0 80 84" fill="none" xmlns="http://www.w3.org/2000/svg">
<path d="M73.7048 1.23309H18.5673C15.4822 1.23309 12.9812 3.73187 12.9812 6.81428V73.8903C12.9812 76.9727 15.4822 79.4715 18.5673 79.4715H73.7048C76.7899 79.4715 79.2909 76.9727 79.2909 73.8903V6.81428C79.2909 3.73187 76.7899 1.23309 73.7048 1.23309Z" fill="#68E1FD"/>
<path d="M73.7047 79.9807H18.5621C16.9489 79.974 15.4036 79.3308 14.2628 78.191C13.122 77.0512 12.4781 75.5073 12.4714 73.8954V6.81428C12.4714 5.198 13.1123 3.64754 14.2538 2.50228C15.3953 1.35701 16.9444 0.710226 18.5621 0.703491H73.7047C75.3268 0.703491 76.8825 1.3473 78.0295 2.4933C79.1765 3.63929 79.8209 5.1936 79.8209 6.81428V73.8954C79.8142 75.5117 79.1668 77.0595 78.0205 78.2C76.8743 79.3404 75.3224 79.9808 73.7047 79.9807V79.9807ZM18.5621 1.74233C17.2148 1.74906 15.9249 2.28854 14.9746 3.2428C14.0243 4.19707 13.4908 5.48848 13.4908 6.83465V73.8954C13.4975 75.2372 14.0339 76.5221 14.9836 77.4708C15.9332 78.4196 17.2192 78.9556 18.5621 78.9623H73.7047C75.0521 78.9623 76.3446 78.4293 77.2997 77.4798C78.2548 76.5303 78.7948 75.2416 78.8015 73.8954V6.81428C78.8015 5.46371 78.2645 4.16846 77.3087 3.21346C76.3529 2.25847 75.0565 1.72196 73.7047 1.72196L18.5621 1.74233Z" fill="#093F68"/>
<path d="M70.6466 83.4741H11.5591C10.6021 83.4741 9.68422 83.0942 9.00748 82.4181C8.33075 81.7419 7.95056 80.8249 7.95056 79.8687V9.12618C7.95056 8.16998 8.33075 7.25294 9.00748 6.5768C9.68422 5.90066 10.6021 5.52081 11.5591 5.52081H59.3724L74.2552 19.3668V79.8687C74.2552 80.8249 73.875 81.7419 73.1982 82.4181C72.5215 83.0942 71.6036 83.4741 70.6466 83.4741Z" fill="white"/>
<path d="M70.6467 83.9833H11.5591C10.4673 83.982 9.42063 83.548 8.64861 82.7767C7.87658 82.0053 7.44227 80.9596 7.44092 79.8687V9.12619C7.44227 8.03535 7.87658 6.98957 8.64861 6.21822C9.42063 5.44688 10.4673 5.01294 11.5591 5.0116H59.3725C59.5012 5.01204 59.6251 5.06116 59.7191 5.14909L74.6069 18.9951C74.6572 19.043 74.6972 19.1007 74.7244 19.1647C74.7515 19.2286 74.7653 19.2974 74.7649 19.3668V79.8687C74.7635 80.9596 74.3292 82.0053 73.5572 82.7767C72.7852 83.548 71.7385 83.982 70.6467 83.9833V83.9833ZM11.5591 6.03006C10.7377 6.03141 9.95027 6.35804 9.36941 6.93839C8.78855 7.51873 8.46163 8.30546 8.46028 9.12619V79.8687C8.46163 80.6894 8.78855 81.4762 9.36941 82.0565C9.95027 82.6369 10.7377 82.9635 11.5591 82.9648H70.6467C71.4685 82.9648 72.2567 82.6386 72.8379 82.058C73.419 81.4774 73.7455 80.6899 73.7455 79.8687V19.5909L59.1686 6.03006H11.5591Z" fill="#093F68"/>
<path d="M59.3724 5.52081V16.4133C59.371 17.1454 59.6587 17.8486 60.1731 18.3701C60.6874 18.8916 61.3869 19.1894 62.1196 19.1988L74.2552 19.3668L59.3724 5.52081Z" fill="#68E1FD"/>
<path d="M74.2551 19.8761L62.1196 19.708C61.2538 19.6934 60.4283 19.3401 59.8203 18.7241C59.2123 18.1081 58.8703 17.2784 58.8678 16.4133V5.52083C58.8681 5.42188 58.8973 5.32517 58.9517 5.24252C59.0062 5.15987 59.0835 5.09485 59.1744 5.05542C59.2652 5.01598 59.3655 5.00384 59.4632 5.02048C59.5608 5.03711 59.6514 5.08181 59.7241 5.14909L74.6119 18.9951C74.6862 19.0654 74.7376 19.1564 74.7595 19.2564C74.7813 19.3563 74.7725 19.4604 74.7342 19.5553C74.6961 19.6508 74.63 19.7326 74.5445 19.7899C74.4589 19.8472 74.3581 19.8772 74.2551 19.8761ZM59.8821 6.70734V16.4133C59.882 17.0109 60.1171 17.5845 60.5367 18.0104C60.9563 18.4363 61.5266 18.6802 62.1247 18.6896L72.9401 18.8372L59.8821 6.70734Z" fill="#093F68"/>
<path d="M32.3694 49.5236L22.8078 53.8826V53.9539L32.3796 58.3129V63.0946L17.0891 56.1334V51.7031L32.3796 44.7368L32.3694 49.5236Z" fill="#093F68"/>
<path d="M32.3695 63.6038C32.2971 63.6062 32.2253 63.5905 32.1605 63.558L16.8701 56.5968C16.7816 56.5559 16.7067 56.4905 16.6543 56.4084C16.6019 56.3262 16.5742 56.2308 16.5745 56.1334V51.7031C16.5742 51.6057 16.6019 51.5103 16.6543 51.4281C16.7067 51.346 16.7816 51.2806 16.8701 51.2397L32.1605 44.2734C32.2381 44.2386 32.3231 44.2237 32.4079 44.2301C32.4926 44.2365 32.5745 44.2639 32.6459 44.31C32.7173 44.356 32.7761 44.4192 32.8168 44.4938C32.8576 44.5683 32.879 44.6518 32.8792 44.7368V49.5236C32.8794 49.621 32.8517 49.7164 32.7993 49.7985C32.7469 49.8807 32.672 49.9461 32.5836 49.987L23.919 53.9182L32.5836 57.8495C32.672 57.8904 32.7469 57.9558 32.7993 58.038C32.8517 58.1201 32.8794 58.2155 32.8792 58.3129V63.0946C32.8799 63.1807 32.8588 63.2655 32.8178 63.3412C32.7768 63.4169 32.7173 63.481 32.6447 63.5274C32.5622 63.5786 32.4667 63.6051 32.3695 63.6038ZM17.5887 55.8075L31.8598 62.3053V58.649L22.5836 54.4275C22.4951 54.3866 22.4203 54.3212 22.3679 54.239C22.3155 54.1569 22.2878 54.0615 22.288 53.9641V53.8928C22.2878 53.7954 22.3155 53.7 22.3679 53.6178C22.4203 53.5357 22.4951 53.4703 22.5836 53.4294L31.8598 49.2027V45.5414L17.5887 52.0392V55.8075Z" fill="#093F68"/>
<path d="M43.7048 37.8112L47.1503 39.0385L38.0983 66.4403L34.6835 65.2079L43.7048 37.8112Z" fill="#093F68"/>
<path d="M38.0982 66.9495C38.0391 66.9494 37.9805 66.9391 37.9249 66.9189L34.5101 65.6866C34.3857 65.6416 34.2837 65.55 34.2257 65.4312C34.1677 65.3124 34.1582 65.1757 34.1992 65.0501L43.2307 37.6483C43.2523 37.5843 43.2864 37.5252 43.331 37.4745C43.3756 37.4238 43.4299 37.3825 43.4907 37.3529C43.5536 37.3263 43.6212 37.3126 43.6894 37.3126C43.7577 37.3126 43.8253 37.3263 43.8882 37.3529L47.3286 38.5802C47.4551 38.6242 47.5591 38.7162 47.6183 38.8362C47.6774 38.9563 47.6869 39.0948 47.6446 39.2218L38.6079 66.5981C38.5869 66.663 38.5531 66.7231 38.5085 66.7747C38.4638 66.8263 38.4092 66.8684 38.348 66.8986C38.2696 66.934 38.1842 66.9514 38.0982 66.9495V66.9495ZM35.3256 64.9126L37.7771 65.7986L46.5182 39.3695L44.036 38.4783L35.3256 64.9126Z" fill="#093F68"/>
<path d="M49.4948 58.3129L59.0666 53.9539V53.8826L49.4948 49.5236V44.7368L64.7852 51.7031V56.1334L49.4948 63.0946V58.3129Z" fill="#093F68"/>
<path d="M49.4948 63.6038C49.3977 63.6051 49.3022 63.5786 49.2196 63.5274C49.1471 63.481 49.0875 63.4169 49.0465 63.3412C49.0055 63.2655 48.9844 63.1807 48.9851 63.0946V58.3129C48.9849 58.2155 49.0126 58.1201 49.065 58.0379C49.1174 57.9558 49.1923 57.8904 49.2807 57.8495L57.9148 53.9182L49.2807 49.9921C49.1923 49.9511 49.1174 49.8857 49.065 49.8036C49.0126 49.7215 48.9849 49.626 48.9851 49.5286V44.7419C48.9853 44.6569 49.0067 44.5734 49.0475 44.4988C49.0882 44.4243 49.147 44.3611 49.2184 44.3151C49.2899 44.269 49.3717 44.2415 49.4564 44.2351C49.5412 44.2287 49.6262 44.2436 49.7038 44.2785L64.9942 51.2448C65.0827 51.2857 65.1576 51.3511 65.21 51.4332C65.2624 51.5153 65.2901 51.6108 65.2899 51.7082V56.1385C65.2901 56.2359 65.2624 56.3313 65.21 56.4134C65.1576 56.4956 65.0827 56.561 64.9942 56.6019L49.7038 63.5631C49.6386 63.5938 49.5668 63.6078 49.4948 63.6038ZM50.0045 58.6388V62.3053L64.2756 55.8075V52.029L50.0045 45.5312V49.1926L59.2807 53.4192C59.3692 53.4601 59.444 53.5255 59.4964 53.6076C59.5488 53.6898 59.5766 53.7852 59.5763 53.8826V53.9539C59.5766 54.0513 59.5488 54.1467 59.4964 54.2288C59.444 54.311 59.3692 54.3764 59.2807 54.4173L50.0045 58.6388Z" fill="#093F68"/>
<path d="M36.1614 13.088H1.96685C1.36727 13.088 0.881226 13.5737 0.881226 14.1727V34.5369C0.881226 35.1359 1.36727 35.6215 1.96685 35.6215H36.1614C36.761 35.6215 37.2471 35.1359 37.2471 34.5369V14.1727C37.2471 13.5737 36.761 13.088 36.1614 13.088Z" fill="#68E1FD"/>
<path d="M36.1615 36.1308H1.96689C1.54467 36.1308 1.13966 35.9635 0.840633 35.6657C0.541601 35.3679 0.372931 34.9638 0.371582 34.542V14.1727C0.372926 13.7504 0.541431 13.3457 0.840318 13.0471C1.13921 12.7485 1.5442 12.5801 1.96689 12.5788H36.1615C36.5846 12.5788 36.9904 12.7467 37.2895 13.0456C37.5887 13.3445 37.7568 13.75 37.7568 14.1727V34.542C37.7555 34.9638 37.5868 35.3679 37.2877 35.6657C36.9887 35.9635 36.5837 36.1308 36.1615 36.1308V36.1308ZM1.96689 13.5972C1.81633 13.6012 1.67319 13.6634 1.56765 13.7708C1.46211 13.8781 1.40241 14.0222 1.40114 14.1727V34.542C1.40248 34.6937 1.46376 34.8388 1.57162 34.9456C1.67949 35.0524 1.82521 35.1123 1.97708 35.1123H36.1615C36.2369 35.113 36.3117 35.0987 36.3815 35.0704C36.4514 35.042 36.5149 35.0001 36.5684 34.9471C36.622 34.894 36.6645 34.8309 36.6935 34.7614C36.7225 34.6919 36.7374 34.6173 36.7374 34.542V14.1727C36.7374 14.0201 36.6768 13.8737 36.5687 13.7658C36.4607 13.6579 36.3142 13.5972 36.1615 13.5972H1.96689Z" fill="#093F68"/>
<path d="M16.4521 28.5432C16.3574 29.0139 16.1722 29.4619 15.9067 29.8621C15.6273 30.2889 15.2453 30.6391 14.7956 30.8806C14.2249 31.1632 13.5922 31.298 12.9557 31.2727C12.1142 31.302 11.2877 31.0453 10.6111 30.5445C9.99605 30.0789 9.55466 29.421 9.3573 28.6756L11.7222 27.8812C11.7814 28.1499 11.9199 28.3947 12.1198 28.5839C12.3145 28.761 12.5702 28.8558 12.8333 28.8487C13.0067 28.8699 13.1824 28.8379 13.3372 28.7569C13.4919 28.676 13.6184 28.5499 13.6998 28.3955C13.8567 28.0203 13.9297 27.6154 13.9139 27.209V19.8812H16.605V27.1632C16.6023 27.6273 16.5511 28.0898 16.4521 28.5432Z" fill="#093F68"/>
<path d="M24.6783 22.7583C24.4383 22.4564 24.1288 22.2171 23.7761 22.0607C23.4426 21.8972 23.0773 21.8086 22.7058 21.801C22.5246 21.803 22.3439 21.8201 22.1655 21.8519C21.9859 21.8785 21.8129 21.939 21.6559 22.0301C21.5104 22.1162 21.3853 22.2326 21.2889 22.3713C21.1857 22.532 21.1342 22.7203 21.1411 22.9111C21.1361 23.0767 21.1767 23.2405 21.2583 23.3847C21.3459 23.5178 21.4627 23.6293 21.5998 23.7106C21.7723 23.8122 21.953 23.899 22.1401 23.9703C22.349 24.0467 22.5835 24.1282 22.8485 24.2096C23.2206 24.337 23.613 24.4744 24.0208 24.6272C24.4186 24.7721 24.7929 24.9746 25.1319 25.2281C25.4649 25.4804 25.7453 25.7952 25.9576 26.1549C26.1904 26.5786 26.3048 27.057 26.2889 27.54C26.3035 28.11 26.183 28.6754 25.9372 29.1899C25.7127 29.6405 25.3885 30.034 24.9892 30.3408C24.5808 30.6466 24.1195 30.8745 23.6283 31.013C23.1141 31.1576 22.5825 31.2313 22.0483 31.232C21.263 31.2345 20.4838 31.0929 19.7497 30.8144C19.0558 30.5608 18.4284 30.1534 17.9148 29.6228L19.6681 27.8405C19.9629 28.1923 20.3296 28.477 20.7435 28.6756C21.1504 28.8913 21.603 29.0066 22.0636 29.0117C22.2589 29.0121 22.4537 28.9916 22.6446 28.9506C22.8252 28.9131 22.9977 28.8442 23.1543 28.7469C23.2963 28.6515 23.412 28.5219 23.4907 28.3701C23.5803 28.1954 23.6242 28.001 23.6181 27.8048C23.6201 27.6227 23.5648 27.4447 23.4601 27.2956C23.3408 27.1345 23.19 26.9994 23.0167 26.8984C22.7902 26.7618 22.5492 26.6508 22.2981 26.5674L21.3195 26.2466C20.9725 26.1313 20.6322 25.997 20.3001 25.8443C19.9684 25.69 19.6624 25.4856 19.3929 25.2383C19.122 24.9866 18.9037 24.6837 18.7507 24.3471C18.5807 23.9448 18.499 23.5106 18.5111 23.0741C18.4945 22.5244 18.6228 21.98 18.8832 21.4954C19.129 21.0671 19.4667 20.6984 19.872 20.4159C20.2911 20.1316 20.7568 19.923 21.2481 19.7997C21.7477 19.6713 22.2614 19.6063 22.7772 19.6062C23.4307 19.6102 24.0788 19.7255 24.6936 19.9474C25.3279 20.1667 25.9107 20.5133 26.4061 20.9658L24.6783 22.7583Z" fill="#093F68"/>
<path d="M36.8394 17.722H0.891518C0.756342 17.722 0.626702 17.6684 0.531118 17.5729C0.435534 17.4774 0.381836 17.3478 0.381836 17.2128C0.381836 17.0777 0.435534 16.9482 0.531118 16.8527C0.626702 16.7572 0.756342 16.7036 0.891518 16.7036H36.8496C36.9848 16.7036 37.1144 16.7572 37.21 16.8527C37.3056 16.9482 37.3593 17.0777 37.3593 17.2128C37.3593 17.3478 37.3056 17.4774 37.21 17.5729C37.1144 17.6684 36.9848 17.722 36.8496 17.722H36.8394Z" fill="#093F68"/>
<path d="M6.01891 15.9295H3.40934C3.27416 15.9295 3.14452 15.8759 3.04894 15.7804C2.95336 15.6849 2.89966 15.5554 2.89966 15.4203C2.89966 15.2852 2.95336 15.1557 3.04894 15.0602C3.14452 14.9647 3.27416 14.9111 3.40934 14.9111H6.01891C6.15409 14.9111 6.28373 14.9647 6.37931 15.0602C6.4749 15.1557 6.52859 15.2852 6.52859 15.4203C6.52859 15.5554 6.4749 15.6849 6.37931 15.7804C6.28373 15.8759 6.15409 15.9295 6.01891 15.9295Z" fill="#093F68"/>
<path d="M70.5549 74.4046H12.9607C12.8256 74.4046 12.6959 74.351 12.6003 74.2555C12.5048 74.16 12.451 74.0305 12.451 73.8954C12.451 73.7604 12.5048 73.6308 12.6003 73.5353C12.6959 73.4398 12.8256 73.3862 12.9607 73.3862H70.5549C70.69 73.3862 70.8197 73.4398 70.9153 73.5353C71.0109 73.6308 71.0645 73.7604 71.0645 73.8954C71.0645 74.0305 71.0109 74.16 70.9153 74.2555C70.8197 74.351 70.69 74.4046 70.5549 74.4046Z" fill="#DFEAEF"/>
</svg>
