<svg width="92" height="78" viewBox="0 0 92 78" fill="none" xmlns="http://www.w3.org/2000/svg">
<path d="M82.6635 77.5275H13.62V11.3458L23.076 0.442123H82.6635V77.5275Z" fill="white"/>
<path d="M82.6821 77.9666H13.6059C13.4822 77.9666 13.3634 77.9203 13.2759 77.838C13.1884 77.7556 13.1392 77.6439 13.1392 77.5275V11.3502C13.1377 11.2481 13.174 11.1487 13.2419 11.0691L22.6979 0.161079C22.7417 0.111509 22.7967 0.0716441 22.8588 0.0443208C22.9209 0.0169975 22.9887 0.00288653 23.0572 0.0029913H82.6821C82.8059 0.0029913 82.9246 0.0492566 83.0121 0.13161C83.0997 0.213963 83.1488 0.325659 83.1488 0.442124V77.5275C83.1488 77.6439 83.0997 77.7556 83.0121 77.838C82.9246 77.9203 82.8059 77.9666 82.6821 77.9666ZM14.11 77.0883H82.2154V0.881257H23.2999L14.0727 11.5039L14.11 77.0883Z" fill="#093F68"/>
<path d="M34.9355 14.086H23.0759C22.7664 14.086 22.4696 13.9703 22.2508 13.7644C22.032 13.5585 21.9091 13.2793 21.9091 12.9881C21.9091 12.697 22.032 12.4177 22.2508 12.2119C22.4696 12.006 22.7664 11.8903 23.0759 11.8903H34.9355C35.245 11.8903 35.5418 12.006 35.7606 12.2119C35.9794 12.4177 36.1023 12.697 36.1023 12.9881C36.1023 13.2793 35.9794 13.5585 35.7606 13.7644C35.5418 13.9703 35.245 14.086 34.9355 14.086Z" fill="#DFEAEF"/>
<path d="M51.3038 21.5117H26.9731C26.6636 21.5117 26.3669 21.396 26.148 21.1902C25.9292 20.9843 25.8063 20.705 25.8063 20.4139C25.8063 20.1227 25.9292 19.8435 26.148 19.6376C26.3669 19.4317 26.6636 19.316 26.9731 19.316H51.3038C51.6133 19.316 51.91 19.4317 52.1289 19.6376C52.3477 19.8435 52.4706 20.1227 52.4706 20.4139C52.4706 20.705 52.3477 20.9843 52.1289 21.1902C51.91 21.396 51.6133 21.5117 51.3038 21.5117V21.5117Z" fill="#DFEAEF"/>
<path d="M45.2643 28.9418H26.9731C26.6636 28.9418 26.3669 28.8262 26.148 28.6203C25.9292 28.4144 25.8063 28.1351 25.8063 27.844C25.8063 27.5528 25.9292 27.2736 26.148 27.0677C26.3669 26.8618 26.6636 26.7462 26.9731 26.7462H45.2643C45.5737 26.7462 45.8705 26.8618 46.0894 27.0677C46.3082 27.2736 46.4311 27.5528 46.4311 27.844C46.4311 28.1351 46.3082 28.4144 46.0894 28.6203C45.8705 28.8262 45.5737 28.9418 45.2643 28.9418V28.9418Z" fill="#DFEAEF"/>
<path d="M35.6124 36.35H25.1109C24.8015 36.35 24.5047 36.2343 24.2859 36.0284C24.067 35.8226 23.9441 35.5433 23.9441 35.2522C23.9441 34.961 24.067 34.6818 24.2859 34.4759C24.5047 34.27 24.8015 34.1543 25.1109 34.1543H35.6124C35.9218 34.1543 36.2186 34.27 36.4374 34.4759C36.6563 34.6818 36.7792 34.961 36.7792 35.2522C36.7792 35.5433 36.6563 35.8226 36.4374 36.0284C36.2186 36.2343 35.9218 36.35 35.6124 36.35Z" fill="#DFEAEF"/>
<path d="M39.7895 43.8152H27.9345C27.6251 43.8152 27.3283 43.6996 27.1095 43.4937C26.8906 43.2878 26.7677 43.0086 26.7677 42.7174C26.7677 42.4263 26.8906 42.147 27.1095 41.9411C27.3283 41.7352 27.6251 41.6196 27.9345 41.6196H39.7895C40.099 41.6196 40.3957 41.7352 40.6146 41.9411C40.8334 42.147 40.9563 42.4263 40.9563 42.7174C40.9563 43.0086 40.8334 43.2878 40.6146 43.4937C40.3957 43.6996 40.099 43.8152 39.7895 43.8152V43.8152Z" fill="#DFEAEF"/>
<path d="M45.8104 51.2234H27.5239C27.2144 51.2234 26.9176 51.1077 26.6988 50.9019C26.48 50.696 26.3571 50.4167 26.3571 50.1256C26.3571 49.8344 26.48 49.5552 26.6988 49.3493C26.9176 49.1434 27.2144 49.0277 27.5239 49.0277H45.8104C46.1199 49.0277 46.4167 49.1434 46.6355 49.3493C46.8543 49.5552 46.9772 49.8344 46.9772 50.1256C46.9772 50.4167 46.8543 50.696 46.6355 50.9019C46.4167 51.1077 46.1199 51.2234 45.8104 51.2234V51.2234Z" fill="#DFEAEF"/>
<path d="M31.9718 58.6535H23.0759C22.7664 58.6535 22.4696 58.5379 22.2508 58.332C22.032 58.1261 21.9091 57.8469 21.9091 57.5557C21.9091 57.2645 22.032 56.9853 22.2508 56.7794C22.4696 56.5735 22.7664 56.4579 23.0759 56.4579H31.9718C32.2812 56.4579 32.578 56.5735 32.7969 56.7794C33.0157 56.9853 33.1386 57.2645 33.1386 57.5557C33.1386 57.8469 33.0157 58.1261 32.7969 58.332C32.578 58.5379 32.2812 58.6535 31.9718 58.6535Z" fill="#DFEAEF"/>
<path d="M45.8104 66.0793H26.3524C26.0429 66.0793 25.7461 65.9636 25.5273 65.7577C25.3085 65.5518 25.1855 65.2726 25.1855 64.9814C25.1855 64.6903 25.3085 64.411 25.5273 64.2051C25.7461 63.9993 26.0429 63.8836 26.3524 63.8836H45.8104C46.1199 63.8836 46.4166 63.9993 46.6355 64.2051C46.8543 64.411 46.9772 64.6903 46.9772 64.9814C46.9772 65.2726 46.8543 65.5518 46.6355 65.7577C46.4166 65.9636 46.1199 66.0793 45.8104 66.0793V66.0793Z" fill="#DFEAEF"/>
<path d="M64.4797 66.0793H51.6912C51.3818 66.0793 51.085 65.9636 50.8662 65.7577C50.6473 65.5518 50.5244 65.2726 50.5244 64.9814C50.5244 64.6903 50.6473 64.411 50.8662 64.2051C51.085 63.9993 51.3818 63.8836 51.6912 63.8836H64.4797C64.7891 63.8836 65.0859 63.9993 65.3047 64.2051C65.5236 64.411 65.6465 64.6903 65.6465 64.9814C65.6465 65.2726 65.5236 65.5518 65.3047 65.7577C65.0859 65.9636 64.7891 66.0793 64.4797 66.0793V66.0793Z" fill="#DFEAEF"/>
<path d="M60.3397 28.9418H51.3038C50.9943 28.9418 50.6975 28.8262 50.4787 28.6203C50.2599 28.4144 50.137 28.1351 50.137 27.844C50.137 27.5528 50.2599 27.2736 50.4787 27.0677C50.6975 26.8618 50.9943 26.7462 51.3038 26.7462H60.3397C60.6492 26.7462 60.9459 26.8618 61.1648 27.0677C61.3836 27.2736 61.5065 27.5528 61.5065 27.844C61.5065 28.1351 61.3836 28.4144 61.1648 28.6203C60.9459 28.8262 60.6492 28.9418 60.3397 28.9418V28.9418Z" fill="#DFEAEF"/>
<path d="M73.2121 21.5117H55.8217C55.5123 21.5117 55.2155 21.396 54.9967 21.1902C54.7778 20.9843 54.6549 20.705 54.6549 20.4139C54.6549 20.1227 54.7778 19.8435 54.9967 19.6376C55.2155 19.4317 55.5123 19.316 55.8217 19.316H73.2121C73.5216 19.316 73.8184 19.4317 74.0372 19.6376C74.256 19.8435 74.379 20.1227 74.379 20.4139C74.379 20.705 74.256 20.9843 74.0372 21.1902C73.8184 21.396 73.5216 21.5117 73.2121 21.5117V21.5117Z" fill="#DFEAEF"/>
<path d="M70.3324 28.9418H65.2497C64.9403 28.9418 64.6435 28.8262 64.4246 28.6203C64.2058 28.4144 64.0829 28.1351 64.0829 27.844C64.0829 27.5528 64.2058 27.2736 64.4246 27.0677C64.6435 26.8618 64.9403 26.7462 65.2497 26.7462H70.3324C70.6419 26.7462 70.9387 26.8618 71.1575 27.0677C71.3763 27.2736 71.4992 27.5528 71.4992 27.844C71.4992 28.1351 71.3763 28.4144 71.1575 28.6203C70.9387 28.8262 70.6419 28.9418 70.3324 28.9418V28.9418Z" fill="#DFEAEF"/>
<path d="M48.368 43.8152H43.29C42.9805 43.8152 42.6837 43.6996 42.4649 43.4937C42.2461 43.2878 42.1232 43.0086 42.1232 42.7174C42.1232 42.4263 42.2461 42.147 42.4649 41.9411C42.6837 41.7352 42.9805 41.6196 43.29 41.6196H48.368C48.6775 41.6196 48.9743 41.7352 49.1931 41.9411C49.4119 42.147 49.5349 42.4263 49.5349 42.7174C49.5349 43.0086 49.4119 43.2878 49.1931 43.4937C48.9743 43.6996 48.6775 43.8152 48.368 43.8152V43.8152Z" fill="#DFEAEF"/>
<path d="M73.2122 43.8152H52.5454C52.2359 43.8152 51.9391 43.6996 51.7203 43.4937C51.5015 43.2878 51.3785 43.0086 51.3785 42.7174C51.3785 42.4263 51.5015 42.147 51.7203 41.9411C51.9391 41.7352 52.2359 41.6196 52.5454 41.6196H73.2122C73.5217 41.6196 73.8185 41.7352 74.0373 41.9411C74.2561 42.147 74.379 42.4263 74.379 42.7174C74.379 43.0086 74.2561 43.2878 74.0373 43.4937C73.8185 43.6996 73.5217 43.8152 73.2122 43.8152V43.8152Z" fill="#DFEAEF"/>
<path d="M55.8217 51.2234H51.3038C50.9943 51.2234 50.6975 51.1077 50.4787 50.9019C50.2599 50.696 50.137 50.4167 50.137 50.1256C50.137 49.8344 50.2599 49.5552 50.4787 49.3493C50.6975 49.1434 50.9943 49.0277 51.3038 49.0277H55.8217C56.1312 49.0277 56.428 49.1434 56.6468 49.3493C56.8656 49.5552 56.9886 49.8344 56.9886 50.1256C56.9886 50.4167 56.8656 50.696 56.6468 50.9019C56.428 51.1077 56.1312 51.2234 55.8217 51.2234V51.2234Z" fill="#DFEAEF"/>
<path d="M73.2122 66.0793H70.3325C70.023 66.0793 69.7262 65.9636 69.5074 65.7577C69.2886 65.5518 69.1656 65.2726 69.1656 64.9814C69.1656 64.6903 69.2886 64.411 69.5074 64.2051C69.7262 63.9993 70.023 63.8836 70.3325 63.8836H73.2122C73.5217 63.8836 73.8185 63.9993 74.0373 64.2051C74.2561 64.411 74.379 64.6903 74.379 64.9814C74.379 65.2726 74.2561 65.5518 74.0373 65.7577C73.8185 65.9636 73.5217 66.0793 73.2122 66.0793V66.0793Z" fill="#DFEAEF"/>
<path d="M84.9084 6.04546H55.7471C54.5021 6.04546 53.4928 6.99507 53.4928 8.16647V21.4502C53.4928 22.6216 54.5021 23.5712 55.7471 23.5712H84.9084C86.1535 23.5712 87.1628 22.6216 87.1628 21.4502V8.16647C87.1628 6.99507 86.1535 6.04546 84.9084 6.04546Z" fill="#68E1FD"/>
<path d="M84.9131 24.0104H55.747C55.0258 24.0092 54.3344 23.7391 53.8243 23.2592C53.3143 22.7794 53.0272 22.1289 53.026 21.4502V8.16208C53.0285 7.48461 53.3162 6.83568 53.8263 6.35746C54.3363 5.87924 55.027 5.61071 55.747 5.61072H84.9131C85.6339 5.61072 86.3253 5.87984 86.8355 6.35901C87.3456 6.83818 87.6329 7.48824 87.6341 8.16647V21.4546C87.6316 22.1325 87.344 22.7819 86.8341 23.2608C86.3242 23.7397 85.6335 24.0092 84.9131 24.0104V24.0104ZM55.747 6.48898C55.2737 6.48898 54.8198 6.66557 54.4847 6.98004C54.1496 7.2945 53.9607 7.72117 53.9595 8.16647V21.4546C53.9607 21.9003 54.1494 22.3274 54.4844 22.6426C54.8194 22.9578 55.2733 23.1353 55.747 23.1365H84.9131C85.3868 23.1353 85.8407 22.9578 86.1757 22.6426C86.5107 22.3274 86.6994 21.9003 86.7006 21.4546V8.16208C86.6982 7.71754 86.5087 7.292 86.1738 6.97848C85.8388 6.66497 85.3855 6.48898 84.9131 6.48898H55.747Z" fill="#093F68"/>
<path d="M61.8006 9.29065H66.1552C66.7335 9.28802 67.3106 9.34099 67.8775 9.44874C68.3773 9.53819 68.8533 9.72031 69.2777 9.98448C69.6865 10.2438 70.0176 10.5976 70.2391 11.0121C70.4942 11.5206 70.6159 12.0793 70.5938 12.6412C70.6144 13.1979 70.5011 13.7518 70.2625 14.2616C70.0608 14.6785 69.7471 15.0387 69.3523 15.3068C68.9392 15.5762 68.4725 15.7644 67.9801 15.8601C67.414 15.9724 66.8365 16.0269 66.2579 16.0226H64.3676V20.3217H61.7866L61.8006 9.29065ZM64.3816 13.9542H66.1039C66.3298 13.955 66.5551 13.9329 66.776 13.8884C66.9801 13.8516 67.176 13.7818 67.3547 13.682C67.5268 13.58 67.6694 13.4398 67.7701 13.2736C67.879 13.0742 67.932 12.8521 67.9241 12.6281C67.9381 12.3874 67.8658 12.1492 67.7188 11.9518C67.5796 11.7807 67.3987 11.6437 67.1914 11.5522C66.962 11.4563 66.7177 11.3955 66.4679 11.3721C66.2019 11.3502 65.9499 11.337 65.7072 11.337H64.3816V13.9542Z" fill="#093F68"/>
<path d="M75.1117 15.6186L70.7104 9.29065H73.9216L76.4046 13.4229L79.0369 9.29065H82.1034L77.6974 15.6186V20.3217H75.1117V15.6186Z" fill="#093F68"/>
<path d="M14.0447 72.697V58.6447H32.2752V43.6703C32.2752 39.0331 28.6441 35.2697 24.1635 35.2697H19.6128C15.1322 35.2697 11.501 39.0331 11.501 43.6703V46.4983H7.30046C3.79998 46.4983 0.966919 49.4361 0.966919 53.0546V66.1407C0.966919 69.7636 3.79998 72.697 7.30046 72.697H14.0447Z" fill="#68E1FD"/>
<path d="M14.0447 73.1361H7.27708C3.54323 73.1361 0.476807 70.0007 0.476807 66.1408V53.037C0.476807 49.1815 3.52456 46.0417 7.27708 46.0417H11.0109V43.6528C11.0109 38.7784 14.8615 34.813 19.5894 34.813H24.1401C28.8727 34.813 32.7186 38.7652 32.7186 43.6528V58.6448C32.7186 58.7612 32.6694 58.8729 32.5819 58.9553C32.4943 59.0376 32.3756 59.0839 32.2518 59.0839H14.5114V72.697C14.5114 72.8135 14.4622 72.9252 14.3747 73.0075C14.2872 73.0899 14.1685 73.1361 14.0447 73.1361V73.1361ZM7.27708 46.9375C4.04263 46.9375 1.41027 49.6821 1.41027 53.0546V66.1408C1.41027 69.5133 4.04263 72.2579 7.27708 72.2579H13.5779V58.6448C13.5779 58.5283 13.6271 58.4166 13.7146 58.3342C13.8022 58.2519 13.9209 58.2056 14.0447 58.2056H31.8085V43.6703C31.8085 39.279 28.378 35.7089 24.1634 35.7089H19.6128C15.4122 35.7089 11.9677 39.2834 11.9677 43.6703V46.4984C11.9677 46.6148 11.9185 46.7265 11.831 46.8089C11.7435 46.8912 11.6248 46.9375 11.501 46.9375H7.27708Z" fill="#093F68"/>
<path d="M17.5872 43.2048C18.412 43.2048 19.0807 42.5757 19.0807 41.7996C19.0807 41.0235 18.412 40.3944 17.5872 40.3944C16.7623 40.3944 16.0936 41.0235 16.0936 41.7996C16.0936 42.5757 16.7623 43.2048 17.5872 43.2048Z" fill="#093F68"/>
<path d="M90.7892 56.3437C90.7755 56.0256 90.6511 55.7206 90.4353 55.4755C90.2194 55.2303 89.924 55.0586 89.5944 54.9868C89.0156 54.8682 88.4322 54.7804 87.8488 54.697C87.768 54.6918 87.6911 54.6626 87.629 54.6137C87.567 54.5648 87.523 54.4986 87.5034 54.4247C87.3261 53.9856 87.1347 53.5464 86.9294 53.1293C86.8975 53.0788 86.8835 53.0202 86.8893 52.9618C86.8952 52.9033 86.9207 52.8482 86.962 52.8043C87.3121 52.3652 87.6715 51.8953 87.9982 51.421C88.1853 51.1554 88.2736 50.8389 88.2491 50.521C88.2246 50.2032 88.0887 49.9019 87.8628 49.6645C87.3307 49.1112 86.7567 48.593 86.1966 48.0617C85.9195 47.7683 85.534 47.5855 85.1185 47.5504C84.7031 47.5153 84.2891 47.6306 83.9609 47.8728C83.5222 48.1583 83.0882 48.4481 82.6588 48.7511C82.6116 48.7905 82.5525 48.815 82.4897 48.8213C82.427 48.8276 82.3637 48.8154 82.3087 48.7862C81.814 48.5798 81.3146 48.3866 80.8105 48.2022C80.7497 48.1869 80.6955 48.1541 80.6553 48.1085C80.6152 48.0628 80.5911 48.0066 80.5865 47.9475C80.5025 47.4469 80.4138 46.9463 80.3204 46.4413C80.2708 46.085 80.0882 45.7569 79.8052 45.5155C79.5222 45.2742 79.1573 45.1354 78.7756 45.1239C77.9541 45.1063 77.1327 45.1063 76.3112 45.1239C75.9603 45.129 75.6215 45.2453 75.3496 45.4541C75.0777 45.6629 74.8886 45.9519 74.813 46.2744C74.6823 46.8365 74.589 47.4074 74.491 47.9738C74.4863 48.0329 74.4623 48.0892 74.4221 48.1348C74.382 48.1804 74.3278 48.2132 74.2669 48.2285C73.8002 48.4086 73.3055 48.6018 72.8341 48.7994C72.7833 48.8296 72.7235 48.8434 72.6637 48.8386C72.6039 48.8339 72.5473 48.8108 72.5027 48.7731C72.036 48.4437 71.5692 48.11 71.0605 47.807C70.7794 47.6298 70.444 47.545 70.1064 47.5657C69.7688 47.5863 69.4479 47.7113 69.1936 47.9211C68.5682 48.4613 67.9567 49.0234 67.3827 49.6074C67.1093 49.8675 66.9473 50.2131 66.9275 50.5784C66.9077 50.9437 67.0315 51.303 67.2753 51.5879C67.5974 52.027 67.9287 52.4662 68.2461 52.9053C68.2677 52.9401 68.2814 52.9788 68.2862 53.0189C68.291 53.059 68.2869 53.0995 68.2741 53.138C68.0781 53.6255 67.8681 54.1085 67.6487 54.5872C67.6303 54.6237 67.6037 54.656 67.5706 54.6818C67.5376 54.7076 67.4989 54.7262 67.4573 54.7365C66.9253 54.8287 66.3932 54.9121 65.8564 54.9912C65.4794 55.0316 65.1294 55.1953 64.8675 55.4537C64.6056 55.7121 64.4485 56.0489 64.4236 56.4052C64.3956 57.2132 64.4003 58.0212 64.4236 58.8292C64.4393 59.1446 64.5641 59.4465 64.7789 59.6891C64.9937 59.9316 65.2869 60.1015 65.6137 60.1729C66.2205 60.3047 66.8459 60.3925 67.4807 60.4891C67.5402 60.4942 67.5967 60.5163 67.6425 60.5524C67.6884 60.5885 67.7215 60.6369 67.7374 60.6911C67.9287 61.1302 68.1388 61.6045 68.3535 62.0568C68.3815 62.1018 68.3939 62.154 68.3888 62.206C68.3838 62.2579 68.3617 62.3071 68.3255 62.3466C67.9987 62.7638 67.6767 63.181 67.364 63.607C67.121 63.9079 67.0056 64.283 67.0401 64.6596C67.0746 65.0361 67.2565 65.3871 67.5507 65.6445C68.0641 66.1393 68.5853 66.6282 69.1142 67.1112C69.3925 67.3988 69.7772 67.5753 70.1893 67.6047C70.6015 67.6341 71.01 67.5141 71.3312 67.2693C71.7979 66.9751 72.2273 66.6765 72.6707 66.3911C72.7129 66.3625 72.7635 66.3471 72.8154 66.3471C72.8673 66.3471 72.918 66.3625 72.9601 66.3911C73.4268 66.5755 73.8936 66.7599 74.3603 66.9224C74.4308 66.9417 74.493 66.9813 74.5382 67.0357C74.5835 67.09 74.6094 67.1564 74.6123 67.2254C74.6963 67.7216 74.7803 68.2178 74.8737 68.7141C74.9184 69.0607 75.0901 69.3819 75.3593 69.6223C75.6285 69.8628 75.9783 70.0074 76.3486 70.0315C77.2167 70.0578 78.0801 70.0315 78.9483 70.0315C79.2869 70.0039 79.6068 69.8732 79.8594 69.6593C80.1121 69.4454 80.2838 69.1598 80.3484 68.8458C80.4745 68.2969 80.5631 67.7392 80.6612 67.1859C80.6643 67.1197 80.6894 67.0562 80.7329 67.0042C80.7765 66.9522 80.8362 66.9144 80.9039 66.896C81.3706 66.7204 81.8653 66.5316 82.3414 66.3383C82.3902 66.3122 82.4462 66.3008 82.5021 66.3055C82.558 66.3102 82.611 66.3309 82.6541 66.3647C83.0928 66.6721 83.5455 66.9663 83.9889 67.2649C84.2998 67.4814 84.6808 67.59 85.0671 67.5723C85.4243 67.5726 85.7675 67.4419 86.0239 67.2078C86.5933 66.7028 87.1394 66.1803 87.6901 65.6621C88.0102 65.3997 88.2098 65.0309 88.2472 64.633C88.2846 64.2352 88.1569 63.8391 87.8908 63.5279C87.5874 63.1195 87.2794 62.7067 86.9574 62.3027C86.9214 62.2622 86.8994 62.2123 86.8944 62.1597C86.8894 62.1072 86.9016 62.0544 86.9294 62.0085C87.1409 61.5577 87.3416 61.101 87.5314 60.6384C87.55 60.582 87.5862 60.5321 87.6353 60.4953C87.6844 60.4585 87.7442 60.4364 87.8068 60.432L89.4077 60.1861C89.7841 60.1398 90.131 59.9699 90.3872 59.7064C90.6434 59.4428 90.7924 59.1026 90.8079 58.7458C90.8126 57.9334 90.8079 57.1385 90.7892 56.3437ZM77.5854 62.9087C76.4583 62.907 75.357 62.5908 74.4209 62.0002C73.4848 61.4096 72.7558 60.5711 72.3262 59.5907C71.8966 58.6103 71.7856 57.532 72.0073 56.4923C72.229 55.4525 72.7734 54.498 73.5717 53.7494C74.37 53.0007 75.3863 52.4916 76.4921 52.2864C77.5979 52.0813 78.7436 52.1892 79.7842 52.5966C80.8248 53.0041 81.7136 53.6927 82.3383 54.5754C82.9629 55.4581 83.2954 56.4952 83.2935 57.5557C83.2923 58.2598 83.1437 58.9568 82.8562 59.6069C82.5686 60.257 82.1478 60.8474 81.6178 61.3445C81.0877 61.8416 80.4588 62.2356 79.7669 62.5039C79.0751 62.7723 78.3338 62.9099 77.5854 62.9087V62.9087Z" fill="#15CDC1" stroke="#093F68" stroke-width="2.03" stroke-linecap="round" stroke-linejoin="round"/>
<path d="M65.8331 40.5174C65.8218 40.2762 65.7274 40.0449 65.564 39.8587C65.4006 39.6725 65.1772 39.5415 64.9276 39.4854C64.4889 39.3976 64.0455 39.3317 63.6021 39.2658C63.5407 39.2626 63.482 39.2408 63.4349 39.2036C63.3878 39.1664 63.3548 39.1158 63.3407 39.0595C63.2054 38.7301 63.0607 38.4008 62.9067 38.0802C62.8815 38.0416 62.8702 37.9965 62.8744 37.9514C62.8786 37.9063 62.8981 37.8637 62.93 37.8299C63.1961 37.483 63.4714 37.1404 63.7141 36.7804C63.8528 36.5805 63.9179 36.3434 63.8993 36.1053C63.8808 35.8673 63.7796 35.6416 63.6115 35.463C63.2101 35.0458 62.7713 34.6506 62.3466 34.251C62.1369 34.0284 61.8448 33.8895 61.53 33.8626C61.2152 33.8356 60.9013 33.9227 60.6524 34.106C60.321 34.3212 59.9896 34.5452 59.6629 34.7691C59.6278 34.7989 59.5837 34.8174 59.5368 34.8222C59.4898 34.8269 59.4425 34.8176 59.4015 34.7955C59.0235 34.6374 58.6454 34.4925 58.2627 34.3564C58.2159 34.3439 58.1743 34.3184 58.1434 34.283C58.1126 34.2477 58.0939 34.2043 58.09 34.1587C58.0293 33.7811 57.964 33.399 57.8893 33.017C57.8488 32.7489 57.7092 32.5029 57.4949 32.3222C57.2806 32.1414 57.0055 32.0376 56.7178 32.0289C56.0971 32.0289 55.4717 32.0289 54.8509 32.0289C54.5847 32.0349 54.3283 32.1246 54.1226 32.2838C53.917 32.443 53.7741 32.6625 53.7168 32.9072C53.6187 33.3463 53.5487 33.7855 53.4741 34.1983C53.4693 34.2431 53.4502 34.2855 53.4194 34.3199C53.3886 34.3544 53.3475 34.3793 53.3014 34.3915C52.9373 34.5276 52.5733 34.6725 52.2139 34.8306C52.178 34.8552 52.1346 34.8685 52.0902 34.8685C52.0457 34.8685 52.0024 34.8552 51.9665 34.8306C51.6025 34.5803 51.2431 34.33 50.8697 34.0973C50.6554 33.9582 50.3977 33.8908 50.1379 33.9059C49.8781 33.9211 49.6312 34.0178 49.4368 34.1807C48.9701 34.5935 48.5034 35.0194 48.06 35.463C47.8529 35.6604 47.7304 35.9226 47.7157 36.1996C47.7011 36.4766 47.7954 36.749 47.9806 36.9648C48.2233 37.2941 48.4754 37.6191 48.7181 37.9485C48.7318 37.9759 48.7389 38.0059 48.7389 38.0363C48.7389 38.0666 48.7318 38.0966 48.7181 38.1241C48.5687 38.493 48.41 38.8618 48.2513 39.2263C48.2192 39.2812 48.1656 39.3221 48.102 39.3405C47.7006 39.4108 47.2945 39.4722 46.8885 39.5337C46.6026 39.5633 46.3371 39.6871 46.1389 39.8832C45.9407 40.0793 45.8227 40.3351 45.8057 40.6052C45.8057 41.2156 45.8057 41.8304 45.8057 42.4408C45.8161 42.6799 45.9093 42.9093 46.071 43.094C46.2328 43.2787 46.4543 43.4086 46.7018 43.464C47.1685 43.5606 47.6352 43.6308 48.102 43.7055C48.147 43.7084 48.19 43.7243 48.2251 43.751C48.2602 43.7777 48.2856 43.8139 48.298 43.8548C48.4427 44.2061 48.6014 44.5486 48.7647 44.8911C48.7862 44.9261 48.7955 44.9665 48.7913 45.0066C48.7871 45.0468 48.7697 45.0847 48.7414 45.1151C48.494 45.4269 48.2513 45.7431 48.0133 46.068C47.8291 46.2966 47.7419 46.5814 47.7686 46.8672C47.7954 47.1529 47.9342 47.419 48.158 47.6138C48.5454 47.9914 48.9421 48.3603 49.3388 48.7292C49.5507 48.9472 49.8431 49.0809 50.1563 49.1029C50.4694 49.125 50.7797 49.0337 51.0237 48.8477C51.3644 48.6238 51.7051 48.4086 52.0412 48.1671C52.0733 48.1459 52.1116 48.1346 52.1509 48.1346C52.1901 48.1346 52.2284 48.1459 52.2606 48.1671C52.6059 48.3076 52.956 48.4481 53.306 48.5711C53.3608 48.5851 53.4094 48.6153 53.4447 48.6571C53.48 48.699 53.5001 48.7504 53.5021 48.8038C53.5627 49.1771 53.6281 49.5547 53.6981 49.928C53.7351 50.1889 53.8668 50.4298 54.071 50.6099C54.2751 50.7899 54.5391 50.8981 54.8182 50.916C55.4717 50.916 56.1298 50.916 56.7878 50.916C57.0472 50.903 57.2948 50.8099 57.4922 50.6512C57.6897 50.4924 57.826 50.2768 57.88 50.0378C57.9733 49.6206 58.0433 49.199 58.118 48.7775C58.1212 48.7278 58.1403 48.6803 58.1728 48.6411C58.2053 48.6019 58.2497 48.5729 58.3 48.5579C58.6688 48.4262 59.0328 48.2812 59.3922 48.1188C59.4295 48.0992 59.4723 48.0908 59.5149 48.0948C59.5574 48.0987 59.5976 48.1147 59.6302 48.1407C59.9663 48.3735 60.307 48.5799 60.643 48.8258C60.8796 48.9878 61.1675 49.0698 61.4598 49.0585C61.7321 49.0572 61.9931 48.9564 62.1879 48.7775C62.6173 48.3998 63.0327 48.0002 63.4528 47.6094C63.6952 47.4099 63.8466 47.1301 63.8753 46.8282C63.904 46.5264 63.8078 46.2258 63.6068 45.989C63.3734 45.6772 63.1401 45.3654 62.8974 45.058C62.8744 45.0246 62.8623 44.9858 62.8623 44.946C62.8623 44.9063 62.8744 44.8674 62.8974 44.8341C63.0607 44.4915 63.2147 44.1446 63.3641 43.7977C63.3777 43.7535 63.4058 43.7145 63.4443 43.6861C63.4829 43.6577 63.5299 43.6415 63.5788 43.6396C63.9802 43.5825 64.3862 43.5167 64.7923 43.4508C65.077 43.4158 65.3394 43.2874 65.5332 43.0881C65.7271 42.8889 65.8399 42.6316 65.8518 42.3617C65.8518 41.7206 65.8471 41.119 65.8331 40.5174ZM55.817 45.4971C54.9624 45.4954 54.1276 45.2553 53.418 44.8073C52.7084 44.3592 52.1559 43.7233 51.8303 42.9798C51.5048 42.2364 51.4208 41.4188 51.589 40.6305C51.7572 39.8421 52.17 39.1184 52.7753 38.5508C53.3805 37.9831 54.1511 37.5971 54.9895 37.4414C55.8279 37.2857 56.6966 37.3673 57.4857 37.6761C58.2748 37.9848 58.9489 38.5066 59.4228 39.1757C59.8968 39.8448 60.1492 40.6311 60.1483 41.4352C60.1477 41.9695 60.0351 42.4986 59.8171 42.992C59.599 43.4854 59.2798 43.9335 58.8775 44.3108C58.4752 44.688 57.9979 44.987 57.4728 45.1905C56.9476 45.3941 56.385 45.4983 55.817 45.4971V45.4971Z" fill="#FFBC0E" stroke="#093F68" stroke-width="2.03" stroke-linecap="round" stroke-linejoin="round"/>
<path d="M23.6687 46.9375H11.501C11.3772 46.9375 11.2585 46.8912 11.171 46.8089C11.0835 46.7265 11.0343 46.6148 11.0343 46.4984C11.0343 46.3819 11.0835 46.2702 11.171 46.1878C11.2585 46.1055 11.3772 46.0592 11.501 46.0592H23.6687C23.7925 46.0592 23.9112 46.1055 23.9987 46.1878C24.0863 46.2702 24.1354 46.3819 24.1354 46.4984C24.1354 46.6148 24.0863 46.7265 23.9987 46.8089C23.9112 46.8912 23.7925 46.9375 23.6687 46.9375Z" fill="#093F68"/>
</svg>
