<svg width="123" height="75" viewBox="0 0 123 75" fill="none" xmlns="http://www.w3.org/2000/svg">
<path d="M104.992 71.7891H88.412C88.2772 71.7891 88.1478 71.7357 88.0525 71.6405C87.9571 71.5453 87.9036 71.4162 87.9036 71.2817C87.9036 71.1471 87.9571 71.018 88.0525 70.9228C88.1478 70.8276 88.2772 70.7742 88.412 70.7742H104.484V63.0705C104.484 62.936 104.538 62.8069 104.633 62.7117C104.728 62.6165 104.858 62.5631 104.992 62.5631C105.127 62.5631 105.257 62.6165 105.352 62.7117C105.447 62.8069 105.501 62.936 105.501 63.0705V71.2817C105.501 71.4162 105.447 71.5453 105.352 71.6405C105.257 71.7357 105.127 71.7891 104.992 71.7891Z" fill="#093F68"/>
<path d="M85.0104 71.7892H40.5365C40.4017 71.7892 40.2723 71.7357 40.177 71.6405C40.0816 71.5453 40.0281 71.4163 40.0281 71.2817C40.0281 71.1471 40.0816 71.018 40.177 70.9228C40.2723 70.8277 40.4017 70.7742 40.5365 70.7742H85.0104C85.1453 70.7742 85.2746 70.8277 85.37 70.9228C85.4653 71.018 85.5189 71.1471 85.5189 71.2817C85.5189 71.4163 85.4653 71.5453 85.37 71.6405C85.2746 71.7357 85.1453 71.7892 85.0104 71.7892Z" fill="#093F68"/>
<path d="M37.8012 71.7891H14.7736C14.6387 71.7891 14.5094 71.7356 14.4141 71.6405C14.3187 71.5453 14.2651 71.4162 14.2651 71.2816V63.8115C14.2651 63.6769 14.3187 63.5478 14.4141 63.4526C14.5094 63.3575 14.6387 63.304 14.7736 63.304C14.9084 63.304 15.0378 63.3575 15.1331 63.4526C15.2285 63.5478 15.282 63.6769 15.282 63.8115V70.7742H37.8012C37.936 70.7742 38.0654 70.8276 38.1607 70.9228C38.2561 71.018 38.3096 71.147 38.3096 71.2816C38.3096 71.4162 38.2561 71.5453 38.1607 71.6405C38.0654 71.7356 37.936 71.7891 37.8012 71.7891Z" fill="#093F68"/>
<path d="M117.165 1.20823H92.7898C89.9649 1.20823 87.6748 3.49395 87.6748 6.31352V58.0566C87.6748 60.8762 89.9649 63.1619 92.7898 63.1619H117.165C119.99 63.1619 122.28 60.8762 122.28 58.0566V6.31352C122.28 3.49395 119.99 1.20823 117.165 1.20823Z" fill="#68E1FD"/>
<path d="M117.165 63.6694H92.7898C91.2983 63.6667 89.8688 63.0738 88.8146 62.0207C87.7605 60.9676 87.1677 59.5402 87.1664 58.0515V6.31352C87.1677 4.82533 87.7606 3.39847 88.8149 2.34617C89.8692 1.29386 91.2988 0.702081 92.7898 0.700737H117.165C118.656 0.702081 120.085 1.29386 121.14 2.34617C122.194 3.39847 122.787 4.82533 122.788 6.31352V58.0769C122.78 59.5612 122.184 60.9821 121.131 62.0297C120.078 63.0773 118.652 63.6667 117.165 63.6694V63.6694ZM92.7898 1.71571C91.5681 1.71571 90.3964 2.20012 89.5325 3.06238C88.6686 3.92463 88.1833 5.0941 88.1833 6.31352V58.0769C88.1833 59.2968 88.6684 60.4668 89.5322 61.3299C90.3959 62.1929 91.5676 62.6785 92.7898 62.6798H117.165C118.387 62.6771 119.557 62.1912 120.421 61.3284C121.284 60.4656 121.77 59.2964 121.771 58.0769V6.31352C121.77 5.09451 121.284 3.92582 120.421 3.06386C119.557 2.20189 118.386 1.71705 117.165 1.71571H92.7898Z" fill="#093F68"/>
<path d="M122.28 7.24728H87.6748V53.7785H122.28V7.24728Z" fill="white"/>
<path d="M122.28 54.286H87.6748C87.54 54.286 87.4107 54.2325 87.3153 54.1374C87.2199 54.0422 87.1664 53.9131 87.1664 53.7785V7.2473C87.1664 7.11271 87.2199 6.98362 87.3153 6.88845C87.4107 6.79328 87.54 6.73981 87.6748 6.73981H122.28C122.415 6.73981 122.544 6.79328 122.639 6.88845C122.735 6.98362 122.788 7.11271 122.788 7.2473V53.7785C122.788 53.9131 122.735 54.0422 122.639 54.1374C122.544 54.2325 122.415 54.286 122.28 54.286V54.286ZM88.1833 53.271H121.771V7.75478H88.1833V53.271Z" fill="#093F68"/>
<path d="M104.993 61.1523C104.431 61.1523 103.882 60.9861 103.416 60.6747C102.949 60.3633 102.585 59.9207 102.371 59.403C102.156 58.8853 102.1 58.3156 102.21 57.7662C102.32 57.2167 102.591 56.7122 102.988 56.3164C103.385 55.9205 103.891 55.6512 104.442 55.5425C104.993 55.4338 105.563 55.4906 106.082 55.7058C106.6 55.9209 107.043 56.2846 107.354 56.751C107.665 57.2173 107.831 57.7653 107.83 58.3256C107.828 59.0757 107.529 59.7947 106.997 60.3247C106.465 60.8546 105.744 61.1523 104.993 61.1523V61.1523ZM104.993 56.5088C104.633 56.5088 104.281 56.6153 103.981 56.815C103.682 57.0146 103.449 57.2983 103.311 57.6303C103.173 57.9623 103.137 58.3276 103.207 58.68C103.278 59.0324 103.451 59.3562 103.705 59.6102C103.96 59.8643 104.284 60.0374 104.637 60.1075C104.991 60.1776 105.357 60.1416 105.689 60.0041C106.022 59.8666 106.306 59.6337 106.506 59.3349C106.706 59.0362 106.813 58.6849 106.813 58.3256C106.813 57.8437 106.621 57.3816 106.28 57.0409C105.938 56.7002 105.475 56.5088 104.993 56.5088V56.5088Z" fill="#093F68"/>
<path d="M107.84 4.62867H100.538C100.404 4.62867 100.274 4.5752 100.179 4.48003C100.084 4.38486 100.03 4.25578 100.03 4.12119C100.03 3.98659 100.084 3.85751 100.179 3.76234C100.274 3.66717 100.404 3.6137 100.538 3.6137H107.84C107.975 3.6137 108.104 3.66717 108.199 3.76234C108.295 3.85751 108.348 3.98659 108.348 4.12119C108.348 4.25578 108.295 4.38486 108.199 4.48003C108.104 4.5752 107.975 4.62867 107.84 4.62867Z" fill="#093F68"/>
<path d="M112.446 4.62867H110.382C110.247 4.62867 110.118 4.5752 110.022 4.48003C109.927 4.38486 109.874 4.25578 109.874 4.12119C109.874 3.98659 109.927 3.85751 110.022 3.76234C110.118 3.66717 110.247 3.6137 110.382 3.6137H112.446C112.581 3.6137 112.71 3.66717 112.806 3.76234C112.901 3.85751 112.955 3.98659 112.955 4.12119C112.955 4.25578 112.901 4.38486 112.806 4.48003C112.71 4.5752 112.581 4.62867 112.446 4.62867Z" fill="#093F68"/>
<path d="M118.751 14.1034H91.6864V27.2878H118.751V14.1034Z" fill="#FFBC0E"/>
<path d="M118.751 27.7953H91.6864C91.5516 27.7953 91.4223 27.7419 91.3269 27.6467C91.2316 27.5515 91.178 27.4224 91.178 27.2879V14.0933C91.178 13.9587 91.2316 13.8296 91.3269 13.7344C91.4223 13.6392 91.5516 13.5858 91.6864 13.5858H118.751C118.886 13.5858 119.015 13.6392 119.111 13.7344C119.206 13.8296 119.26 13.9587 119.26 14.0933V27.2879C119.26 27.4224 119.206 27.5515 119.111 27.6467C119.015 27.7419 118.886 27.7953 118.751 27.7953ZM92.1949 26.7804H118.243V14.6007H92.1949V26.7804Z" fill="#093F68"/>
<path d="M118.751 30.5916H91.6864V43.776H118.751V30.5916Z" fill="#15CDC1"/>
<path d="M118.751 44.2784H91.6864C91.5516 44.2784 91.4223 44.225 91.3269 44.1298C91.2316 44.0346 91.178 43.9055 91.178 43.7709V30.5763C91.178 30.4418 91.2316 30.3127 91.3269 30.2175C91.4223 30.1223 91.5516 30.0689 91.6864 30.0689H118.751C118.886 30.0689 119.015 30.1223 119.111 30.2175C119.206 30.3127 119.26 30.4418 119.26 30.5763V43.7709C119.26 43.9055 119.206 44.0346 119.111 44.1298C119.015 44.225 118.886 44.2784 118.751 44.2784ZM92.1949 43.2635H118.243V31.0838H92.1949V43.2635Z" fill="#093F68"/>
<path d="M118.751 47.0746H91.6864V53.6669H118.751V47.0746Z" fill="#F56132"/>
<path d="M118.751 54.1744H91.6864C91.5516 54.1744 91.4223 54.1209 91.3269 54.0257C91.2316 53.9306 91.178 53.8015 91.178 53.6669V47.0696C91.178 46.935 91.2316 46.8059 91.3269 46.7107C91.4223 46.6156 91.5516 46.5621 91.6864 46.5621H118.751C118.886 46.5621 119.015 46.6156 119.111 46.7107C119.206 46.8059 119.26 46.935 119.26 47.0696V53.6669C119.26 53.8015 119.206 53.9306 119.111 54.0257C119.015 54.1209 118.886 54.1744 118.751 54.1744ZM92.1949 53.1594H118.243V47.5771H92.1949V53.1594Z" fill="#093F68"/>
<path d="M97.737 11.231H90.8577C90.7228 11.231 90.5935 11.1776 90.4982 11.0824C90.4028 10.9872 90.3492 10.8581 90.3492 10.7235C90.3492 10.589 90.4028 10.4599 90.4982 10.3647C90.5935 10.2695 90.7228 10.2161 90.8577 10.2161H97.737C97.8718 10.2161 98.0011 10.2695 98.0965 10.3647C98.1918 10.4599 98.2454 10.589 98.2454 10.7235C98.2454 10.8581 98.1918 10.9872 98.0965 11.0824C98.0011 11.1776 97.8718 11.231 97.737 11.231V11.231Z" fill="#093F68"/>
<path d="M118.09 11.231H114.683C114.549 11.231 114.419 11.1776 114.324 11.0824C114.229 10.9872 114.175 10.8581 114.175 10.7235C114.175 10.589 114.229 10.4599 114.324 10.3647C114.419 10.2695 114.549 10.2161 114.683 10.2161H118.09C118.225 10.2161 118.354 10.2695 118.45 10.3647C118.545 10.4599 118.599 10.589 118.599 10.7235C118.599 10.8581 118.545 10.9872 118.45 11.0824C118.354 11.1776 118.225 11.231 118.09 11.231Z" fill="#093F68"/>
<path d="M73.362 2.3856V61.538C73.362 61.9687 73.1906 62.3817 72.8854 62.6863C72.5803 62.9908 72.1665 63.1619 71.7349 63.1619H2.8962C2.46468 63.1619 2.05084 62.9908 1.74571 62.6863C1.44058 62.3817 1.26917 61.9687 1.26917 61.538V2.3856C1.26917 1.9549 1.44058 1.54184 1.74571 1.23729C2.05084 0.932743 2.46468 0.76165 2.8962 0.76165H71.7349C72.1665 0.76165 72.5803 0.932743 72.8854 1.23729C73.1906 1.54184 73.362 1.9549 73.362 2.3856V2.3856Z" fill="#68E1FD"/>
<path d="M71.7349 63.6694H2.89622C2.33027 63.6681 1.78788 63.4431 1.38769 63.0436C0.987504 62.6442 0.762085 62.1028 0.760742 61.538V2.38559C0.762085 1.82071 0.987504 1.27935 1.38769 0.879922C1.78788 0.480491 2.33027 0.255498 2.89622 0.254158H71.7349C72.3009 0.255498 72.8433 0.480491 73.2435 0.879922C73.6437 1.27935 73.8691 1.82071 73.8704 2.38559V61.538C73.8691 62.1028 73.6437 62.6442 73.2435 63.0436C72.8433 63.4431 72.3009 63.6681 71.7349 63.6694V63.6694ZM2.89622 1.26913C2.59997 1.27046 2.31623 1.38852 2.10674 1.59761C1.89725 1.8067 1.77897 2.0899 1.77764 2.38559V61.538C1.77897 61.8337 1.89725 62.1169 2.10674 62.3259C2.31623 62.535 2.59997 62.6531 2.89622 62.6544H71.7349C72.0312 62.6531 72.3149 62.535 72.5244 62.3259C72.7339 62.1169 72.8522 61.8337 72.8535 61.538V2.38559C72.8522 2.0899 72.7339 1.8067 72.5244 1.59761C72.3149 1.38852 72.0312 1.27046 71.7349 1.26913H2.89622Z" fill="#093F68"/>
<path d="M73.362 2.3856V61.538C73.362 61.9687 73.1906 62.3817 72.8855 62.6863C72.5803 62.9908 72.1665 63.1619 71.735 63.1619H25.9442V0.741348H71.735C71.9504 0.741331 72.1636 0.783998 72.3624 0.866876C72.5611 0.949753 72.7414 1.07119 72.8927 1.22415C73.0441 1.3771 73.1635 1.55853 73.2441 1.7579C73.3246 1.95728 73.3647 2.17063 73.362 2.3856V2.3856Z" fill="white"/>
<path d="M71.735 63.6694H25.9442C25.8094 63.6694 25.6801 63.6159 25.5847 63.5208C25.4894 63.4256 25.4358 63.2965 25.4358 63.1619V0.741341C25.4358 0.606747 25.4894 0.477666 25.5847 0.382495C25.6801 0.287323 25.8094 0.233856 25.9442 0.233856H71.735C72.301 0.235196 72.8434 0.460189 73.2436 0.85962C73.6438 1.25905 73.8692 1.80041 73.8705 2.36529V61.538C73.8692 62.1028 73.6438 62.6442 73.2436 63.0436C72.8434 63.4431 72.301 63.6681 71.735 63.6694V63.6694ZM26.4527 62.6544H71.735C72.0313 62.6531 72.315 62.535 72.5245 62.3259C72.734 62.1169 72.8523 61.8337 72.8536 61.538V2.38559C72.8523 2.08989 72.734 1.80669 72.5245 1.5976C72.315 1.38851 72.0313 1.27046 71.735 1.26912H26.4527V62.6544Z" fill="#093F68"/>
<path d="M73.362 2.3856V9.04887H1.26917V2.3856C1.26917 1.9549 1.44058 1.54184 1.74571 1.23729C2.05084 0.932743 2.46468 0.76165 2.8962 0.76165H71.7349C72.1665 0.76165 72.5803 0.932743 72.8854 1.23729C73.1906 1.54184 73.362 1.9549 73.362 2.3856V2.3856Z" fill="white"/>
<path d="M73.362 9.55635H1.26919C1.13434 9.55635 1.00502 9.50288 0.909663 9.40771C0.81431 9.31254 0.760742 9.18346 0.760742 9.04887V2.38559C0.762085 1.82071 0.987504 1.27935 1.38769 0.879922C1.78788 0.480491 2.33027 0.255498 2.89622 0.254158H71.7349C72.3009 0.255498 72.8433 0.480491 73.2435 0.879922C73.6437 1.27935 73.8691 1.82071 73.8704 2.38559V9.04887C73.8704 9.18346 73.8169 9.31254 73.7215 9.40771C73.6262 9.50288 73.4968 9.55635 73.362 9.55635ZM1.77764 8.54138H72.8535V2.38559C72.8522 2.0899 72.7339 1.8067 72.5244 1.59761C72.3149 1.38852 72.0312 1.27046 71.7349 1.26913H2.89622C2.59997 1.27046 2.31623 1.38852 2.10674 1.59761C1.89725 1.8067 1.77897 2.0899 1.77764 2.38559V8.54138Z" fill="#093F68"/>
<path d="M6.83159 6.1765C7.65998 6.1765 8.33151 5.50623 8.33151 4.67942C8.33151 3.8526 7.65998 3.18233 6.83159 3.18233C6.00321 3.18233 5.33167 3.8526 5.33167 4.67942C5.33167 5.50623 6.00321 6.1765 6.83159 6.1765Z" fill="#F56132"/>
<path d="M6.83164 6.68398C6.42939 6.68398 6.03618 6.56493 5.70173 6.34188C5.36727 6.11883 5.1066 5.80179 4.95266 5.43087C4.79873 5.05995 4.75846 4.6518 4.83693 4.25803C4.9154 3.86426 5.1091 3.50256 5.39353 3.21867C5.67796 2.93477 6.04035 2.74144 6.43486 2.66311C6.82938 2.58479 7.2383 2.62499 7.60993 2.77863C7.98155 2.93227 8.29919 3.19245 8.52266 3.52627C8.74614 3.86009 8.86542 4.25256 8.86542 4.65405C8.86542 5.19242 8.65114 5.70874 8.26973 6.08943C7.88833 6.47012 7.37103 6.68398 6.83164 6.68398ZM6.83164 3.68475C6.63051 3.68475 6.43391 3.74428 6.26668 3.8558C6.09945 3.96733 5.96911 4.12585 5.89215 4.31131C5.81518 4.49677 5.79505 4.70084 5.83428 4.89773C5.87352 5.09461 5.97037 5.27546 6.11258 5.41741C6.2548 5.55936 6.43599 5.65603 6.63325 5.69519C6.83051 5.73435 7.03497 5.71425 7.22078 5.63743C7.40659 5.56061 7.56541 5.43052 7.67715 5.26361C7.78888 5.0967 7.84853 4.90046 7.84853 4.69972C7.84853 4.43054 7.74139 4.17237 7.55068 3.98203C7.35998 3.79169 7.10133 3.68475 6.83164 3.68475Z" fill="#093F68"/>
<path d="M12.9025 6.1765C13.7309 6.1765 14.4024 5.50623 14.4024 4.67942C14.4024 3.8526 13.7309 3.18233 12.9025 3.18233C12.0741 3.18233 11.4026 3.8526 11.4026 4.67942C11.4026 5.50623 12.0741 6.1765 12.9025 6.1765Z" fill="#FFBC0E"/>
<path d="M12.9025 6.68398C12.5002 6.68398 12.107 6.56493 11.7725 6.34188C11.4381 6.11883 11.1774 5.80179 11.0235 5.43087C10.8695 5.05995 10.8293 4.6518 10.9077 4.25803C10.9862 3.86426 11.1799 3.50256 11.4643 3.21867C11.7488 2.93477 12.1112 2.74144 12.5057 2.66311C12.9002 2.58479 13.3091 2.62499 13.6808 2.77863C14.0524 2.93227 14.37 3.19245 14.5935 3.52627C14.817 3.86009 14.9362 4.25256 14.9362 4.65405C14.9362 5.19242 14.722 5.70874 14.3406 6.08943C13.9592 6.47012 13.4418 6.68398 12.9025 6.68398ZM12.9025 3.68475C12.7013 3.68475 12.5047 3.74428 12.3375 3.8558C12.1703 3.96733 12.0399 4.12585 11.963 4.31131C11.886 4.49677 11.8659 4.70084 11.9051 4.89773C11.9443 5.09461 12.0412 5.27546 12.1834 5.41741C12.3256 5.55936 12.5068 5.65603 12.7041 5.69519C12.9013 5.73435 13.1058 5.71425 13.2916 5.63743C13.4774 5.56061 13.6362 5.43052 13.748 5.26361C13.8597 5.0967 13.9194 4.90046 13.9194 4.69972C13.9194 4.43054 13.8122 4.17237 13.6215 3.98203C13.4308 3.79169 13.1721 3.68475 12.9025 3.68475Z" fill="#093F68"/>
<path d="M18.9682 6.1765C19.7966 6.1765 20.4681 5.50623 20.4681 4.67942C20.4681 3.8526 19.7966 3.18233 18.9682 3.18233C18.1398 3.18233 17.4683 3.8526 17.4683 4.67942C17.4683 5.50623 18.1398 6.1765 18.9682 6.1765Z" fill="#70CC40"/>
<path d="M18.9682 6.68398C18.566 6.68398 18.1728 6.56493 17.8383 6.34188C17.5039 6.11883 17.2432 5.80179 17.0893 5.43087C16.9353 5.05995 16.8951 4.6518 16.9735 4.25803C17.052 3.86426 17.2457 3.50256 17.5301 3.21867C17.8146 2.93477 18.177 2.74144 18.5715 2.66311C18.966 2.58479 19.3749 2.62499 19.7466 2.77863C20.1182 2.93227 20.4358 3.19245 20.6593 3.52627C20.8828 3.86009 21.002 4.25256 21.002 4.65405C21.002 5.19242 20.7878 5.70874 20.4064 6.08943C20.0249 6.47012 19.5076 6.68398 18.9682 6.68398ZM18.9682 3.68475C18.7671 3.68475 18.5705 3.74428 18.4033 3.8558C18.2361 3.96733 18.1057 4.12585 18.0288 4.31131C17.9518 4.49677 17.9317 4.70084 17.9709 4.89773C18.0101 5.09461 18.107 5.27546 18.2492 5.41741C18.3914 5.55936 18.5726 5.65603 18.7699 5.69519C18.9671 5.73435 19.1716 5.71425 19.3574 5.63743C19.5432 5.56061 19.702 5.43052 19.8138 5.26361C19.9255 5.0967 19.9851 4.90046 19.9851 4.69972C19.9851 4.43054 19.878 4.17237 19.6873 3.98203C19.4966 3.79169 19.2379 3.68475 18.9682 3.68475Z" fill="#093F68"/>
<path d="M38.152 14.753H30.6829C30.548 14.753 30.4187 14.6995 30.3234 14.6043C30.228 14.5092 30.1744 14.3801 30.1744 14.2455C30.1744 14.1109 30.228 13.9818 30.3234 13.8867C30.4187 13.7915 30.548 13.738 30.6829 13.738H38.152C38.2868 13.738 38.4162 13.7915 38.5115 13.8867C38.6069 13.9818 38.6604 14.1109 38.6604 14.2455C38.6604 14.3801 38.6069 14.5092 38.5115 14.6043C38.4162 14.6995 38.2868 14.753 38.152 14.753Z" fill="#093F68"/>
<path d="M48.4684 20.2592H33.1336C32.9987 20.2592 32.8694 20.2057 32.774 20.1106C32.6787 20.0154 32.6251 19.8863 32.6251 19.7517C32.6251 19.6171 32.6787 19.488 32.774 19.3929C32.8694 19.2977 32.9987 19.2442 33.1336 19.2442H48.4684C48.6032 19.2442 48.7325 19.2977 48.8279 19.3929C48.9232 19.488 48.9768 19.6171 48.9768 19.7517C48.9768 19.8863 48.9232 20.0154 48.8279 20.1106C48.7325 20.2057 48.6032 20.2592 48.4684 20.2592V20.2592Z" fill="#FFBC0E"/>
<path d="M44.6601 25.7654H33.1336C32.9987 25.7654 32.8694 25.7119 32.774 25.6168C32.6787 25.5216 32.6251 25.3925 32.6251 25.2579C32.6251 25.1233 32.6787 24.9942 32.774 24.8991C32.8694 24.8039 32.9987 24.7504 33.1336 24.7504H44.6601C44.7949 24.7504 44.9242 24.8039 45.0196 24.8991C45.115 24.9942 45.1685 25.1233 45.1685 25.2579C45.1685 25.3925 45.115 25.5216 45.0196 25.6168C44.9242 25.7119 44.7949 25.7654 44.6601 25.7654V25.7654Z" fill="#FFBC0E"/>
<path d="M38.5791 31.2817H31.9693C31.8344 31.2817 31.7051 31.2283 31.6097 31.1331C31.5144 31.0379 31.4608 30.9088 31.4608 30.7743C31.4608 30.6397 31.5144 30.5106 31.6097 30.4154C31.7051 30.3202 31.8344 30.2668 31.9693 30.2668H38.5791C38.7139 30.2668 38.8433 30.3202 38.9386 30.4154C39.034 30.5106 39.0875 30.6397 39.0875 30.7743C39.0875 30.9088 39.034 31.0379 38.9386 31.1331C38.8433 31.2283 38.7139 31.2817 38.5791 31.2817Z" fill="#093F68"/>
<path d="M41.2129 36.7778H33.7387C33.6038 36.7778 33.4745 36.7243 33.3791 36.6292C33.2838 36.534 33.2302 36.4049 33.2302 36.2703C33.2302 36.1357 33.2838 36.0066 33.3791 35.9115C33.4745 35.8163 33.6038 35.7628 33.7387 35.7628H41.2129C41.3477 35.7628 41.477 35.8163 41.5724 35.9115C41.6677 36.0066 41.7213 36.1357 41.7213 36.2703C41.7213 36.4049 41.6677 36.534 41.5724 36.6292C41.477 36.7243 41.3477 36.7778 41.2129 36.7778Z" fill="#F56132"/>
<path d="M44.9956 42.284H33.4844C33.3496 42.284 33.2202 42.2305 33.1249 42.1354C33.0295 42.0402 32.976 41.9111 32.976 41.7765C32.976 41.6419 33.0295 41.5128 33.1249 41.4177C33.2202 41.3225 33.3496 41.269 33.4844 41.269H44.9956C45.1305 41.269 45.2598 41.3225 45.3552 41.4177C45.4505 41.5128 45.5041 41.6419 45.5041 41.7765C45.5041 41.9111 45.4505 42.0402 45.3552 42.1354C45.2598 42.2305 45.1305 42.284 44.9956 42.284Z" fill="#093F68"/>
<path d="M36.286 47.7902H30.693C30.5582 47.7902 30.4288 47.7367 30.3335 47.6416C30.2381 47.5464 30.1846 47.4173 30.1846 47.2827C30.1846 47.1481 30.2381 47.019 30.3335 46.9239C30.4288 46.8287 30.5582 46.7752 30.693 46.7752H36.286C36.4208 46.7752 36.5501 46.8287 36.6455 46.9239C36.7408 47.019 36.7944 47.1481 36.7944 47.2827C36.7944 47.4173 36.7408 47.5464 36.6455 47.6416C36.5501 47.7367 36.4208 47.7902 36.286 47.7902Z" fill="#093F68"/>
<path d="M44.9957 53.2964H32.7421C32.6072 53.2964 32.4779 53.243 32.3826 53.1478C32.2872 53.0526 32.2336 52.9235 32.2336 52.7889C32.2336 52.6543 32.2872 52.5253 32.3826 52.4301C32.4779 52.3349 32.6072 52.2814 32.7421 52.2814H44.9957C45.1306 52.2814 45.2599 52.3349 45.3552 52.4301C45.4506 52.5253 45.5042 52.6543 45.5042 52.7889C45.5042 52.9235 45.4506 53.0526 45.3552 53.1478C45.2599 53.243 45.1306 53.2964 44.9957 53.2964Z" fill="#15CDC1"/>
<path d="M56.7763 53.2964H48.7174C48.5826 53.2964 48.4533 53.243 48.3579 53.1478C48.2626 53.0526 48.209 52.9235 48.209 52.7889C48.209 52.6543 48.2626 52.5253 48.3579 52.4301C48.4533 52.3349 48.5826 52.2814 48.7174 52.2814H56.7763C56.9112 52.2814 57.0405 52.3349 57.1359 52.4301C57.2312 52.5253 57.2848 52.6543 57.2848 52.7889C57.2848 52.9235 57.2312 53.0526 57.1359 53.1478C57.0405 53.243 56.9112 53.2964 56.7763 53.2964Z" fill="#FFBC0E"/>
<path d="M54.1478 25.7654H48.4532C48.3183 25.7654 48.189 25.7119 48.0936 25.6168C47.9983 25.5216 47.9447 25.3925 47.9447 25.2579C47.9447 25.1233 47.9983 24.9942 48.0936 24.8991C48.189 24.8039 48.3183 24.7504 48.4532 24.7504H54.1478C54.2826 24.7504 54.4119 24.8039 54.5073 24.8991C54.6027 24.9942 54.6562 25.1233 54.6562 25.2579C54.6562 25.3925 54.6027 25.5216 54.5073 25.6168C54.4119 25.7119 54.2826 25.7654 54.1478 25.7654Z" fill="#093F68"/>
<path d="M62.2829 20.2592H51.3157C51.1809 20.2592 51.0515 20.2057 50.9562 20.1106C50.8608 20.0154 50.8073 19.8863 50.8073 19.7517C50.8073 19.6171 50.8608 19.488 50.9562 19.3929C51.0515 19.2977 51.1809 19.2442 51.3157 19.2442H62.2829C62.4178 19.2442 62.5471 19.2977 62.6425 19.3929C62.7378 19.488 62.7914 19.6171 62.7914 19.7517C62.7914 19.8863 62.7378 20.0154 62.6425 20.1106C62.5471 20.2057 62.4178 20.2592 62.2829 20.2592Z" fill="#68E1FD"/>
<path d="M60.4575 25.7654H57.2543C57.1194 25.7654 56.9901 25.7119 56.8948 25.6168C56.7994 25.5216 56.7458 25.3925 56.7458 25.2579C56.7458 25.1233 56.7994 24.9942 56.8948 24.8991C56.9901 24.8039 57.1194 24.7504 57.2543 24.7504H60.4575C60.5924 24.7504 60.7217 24.8039 60.8171 24.8991C60.9124 24.9942 60.966 25.1233 60.966 25.2579C60.966 25.3925 60.9124 25.5216 60.8171 25.6168C60.7217 25.7119 60.5924 25.7654 60.4575 25.7654Z" fill="#F56132"/>
<path d="M46.6177 36.7778H43.4196C43.2847 36.7778 43.1554 36.7243 43.0601 36.6292C42.9647 36.534 42.9111 36.4049 42.9111 36.2703C42.9111 36.1357 42.9647 36.0066 43.0601 35.9115C43.1554 35.8163 43.2847 35.7628 43.4196 35.7628H46.6177C46.7526 35.7628 46.8819 35.8163 46.9772 35.9115C47.0726 36.0066 47.1262 36.1357 47.1262 36.2703C47.1262 36.4049 47.0726 36.534 46.9772 36.6292C46.8819 36.7243 46.7526 36.7778 46.6177 36.7778Z" fill="#F56132"/>
<path d="M62.2829 36.7778H49.2514C49.1165 36.7778 48.9872 36.7243 48.8918 36.6292C48.7965 36.534 48.7429 36.4049 48.7429 36.2703C48.7429 36.1357 48.7965 36.0066 48.8918 35.9115C48.9872 35.8163 49.1165 35.7628 49.2514 35.7628H62.2829C62.4178 35.7628 62.5471 35.8163 62.6424 35.9115C62.7378 36.0066 62.7914 36.1357 62.7914 36.2703C62.7914 36.4049 62.7378 36.534 62.6424 36.6292C62.5471 36.7243 62.4178 36.7778 62.2829 36.7778Z" fill="#FFBC0E"/>
<path d="M51.3157 42.284H48.4684C48.3336 42.284 48.2042 42.2305 48.1089 42.1354C48.0135 42.0402 47.96 41.9111 47.96 41.7765C47.96 41.6419 48.0135 41.5128 48.1089 41.4177C48.2042 41.3225 48.3336 41.269 48.4684 41.269H51.3157C51.4506 41.269 51.5799 41.3225 51.6752 41.4177C51.7706 41.5128 51.8242 41.6419 51.8242 41.7765C51.8242 41.9111 51.7706 42.0402 51.6752 42.1354C51.5799 42.2305 51.4506 42.284 51.3157 42.284Z" fill="#68E1FD"/>
<path d="M62.283 53.2964H60.4678C60.333 53.2964 60.2036 53.243 60.1083 53.1478C60.0129 53.0526 59.9594 52.9235 59.9594 52.7889C59.9594 52.6543 60.0129 52.5253 60.1083 52.4301C60.2036 52.3349 60.333 52.2814 60.4678 52.2814H62.283C62.4178 52.2814 62.5471 52.3349 62.6425 52.4301C62.7378 52.5253 62.7914 52.6543 62.7914 52.7889C62.7914 52.9235 62.7378 53.0526 62.6425 53.1478C62.5471 53.243 62.4178 53.2964 62.283 53.2964Z" fill="#093F68"/>
<path d="M23.3968 30.5154C23.3873 30.2687 23.2964 30.0319 23.1383 29.842C22.9801 29.6521 22.7636 29.5195 22.5223 29.4649C22.1003 29.3736 21.6732 29.3076 21.2461 29.2417C21.1874 29.2369 21.1317 29.2137 21.0869 29.1754C21.0422 29.1371 21.0107 29.0857 20.997 29.0285C20.8699 28.6936 20.7275 28.3586 20.5801 28.0135C20.5531 27.9757 20.5386 27.9305 20.5386 27.8841C20.5386 27.8378 20.5531 27.7925 20.5801 27.7547C20.8394 27.4046 21.0885 27.0544 21.3376 26.689C21.4749 26.4825 21.5394 26.2362 21.521 25.9891C21.5026 25.7419 21.4023 25.5079 21.2359 25.3239C20.8495 24.8976 20.4275 24.4967 20.0208 24.0856C19.8188 23.8581 19.5373 23.7161 19.234 23.6888C18.9306 23.6614 18.6282 23.7507 18.3886 23.9384C18.0683 24.1567 17.7531 24.385 17.4378 24.6134C17.4011 24.6406 17.3565 24.6553 17.3107 24.6553C17.265 24.6553 17.2204 24.6406 17.1836 24.6134C16.8226 24.4561 16.4565 24.3038 16.0905 24.1668C16.0453 24.1554 16.0049 24.1301 15.9748 24.0946C15.9448 24.0592 15.9265 24.0152 15.9227 23.9689C15.8617 23.5781 15.8006 23.1874 15.7295 22.8017C15.6913 22.5269 15.5571 22.2744 15.3506 22.0887C15.1441 21.903 14.8785 21.796 14.6007 21.7867C14.0007 21.7867 13.4008 21.7867 12.8008 21.7867C12.5452 21.7908 12.2983 21.8806 12.1 22.0417C11.9017 22.2028 11.7635 22.4258 11.7076 22.6748C11.611 23.1112 11.5449 23.5528 11.4737 23.9943C11.4685 24.0401 11.4498 24.0834 11.4199 24.1186C11.39 24.1538 11.3504 24.1794 11.306 24.1922C10.9551 24.3343 10.6094 24.4815 10.2891 24.6337C10.2542 24.6609 10.2113 24.6756 10.167 24.6756C10.1228 24.6756 10.0799 24.6609 10.045 24.6337C9.69926 24.38 9.35352 24.1262 8.99252 23.8826C8.78464 23.7422 8.53579 23.6749 8.28533 23.6915C8.03486 23.708 7.79707 23.8074 7.60954 23.974C7.15194 24.3901 6.70959 24.8265 6.28758 25.2833C6.09022 25.4837 5.97343 25.7494 5.95937 26.03C5.94531 26.3107 6.03496 26.5867 6.21131 26.8057C6.4452 27.1407 6.68925 27.4705 6.91805 27.8207C6.93053 27.8486 6.93698 27.8789 6.93698 27.9095C6.93698 27.9401 6.93053 27.9704 6.91805 27.9983C6.77569 28.3739 6.62315 28.7494 6.46553 29.1249C6.44423 29.179 6.40466 29.2238 6.35367 29.2518C5.96217 29.3229 5.57575 29.3838 5.18424 29.4447C4.9091 29.4771 4.65391 29.6043 4.4627 29.8044C4.27149 30.0045 4.15624 30.265 4.13684 30.5408C4.13684 31.165 4.13684 31.7943 4.13684 32.4185C4.14886 32.6632 4.24011 32.8974 4.3969 33.0859C4.55368 33.2744 4.76752 33.4071 5.00629 33.4639C5.44864 33.5654 5.90624 33.6314 6.35367 33.7075C6.39701 33.7102 6.43843 33.7263 6.47216 33.7536C6.50589 33.7809 6.53023 33.818 6.5418 33.8598C6.68417 34.2201 6.8367 34.5702 6.99432 34.9204C7.01663 34.9543 7.02851 34.994 7.02851 35.0346C7.02851 35.0752 7.01663 35.1148 6.99432 35.1488C6.75535 35.4685 6.51638 35.7933 6.29266 36.1231C6.1136 36.3557 6.02836 36.6467 6.05378 36.9389C6.07919 37.2311 6.21341 37.5032 6.42994 37.7014C6.80111 38.082 7.18244 38.4626 7.56886 38.8382C7.7719 39.0624 8.05352 39.2 8.35544 39.2227C8.65736 39.2454 8.95646 39.1513 9.19082 38.96C9.51622 38.7316 9.84163 38.5032 10.167 38.2647C10.1982 38.2424 10.2355 38.2304 10.2738 38.2304C10.3121 38.2304 10.3495 38.2424 10.3806 38.2647C10.7111 38.4068 11.0466 38.5489 11.3975 38.6758C11.4492 38.6904 11.4951 38.7208 11.5288 38.7626C11.5625 38.8044 11.5824 38.8557 11.5856 38.9092C11.6415 39.2949 11.7076 39.6806 11.7737 40.0612C11.8083 40.3286 11.9346 40.5758 12.1311 40.7609C12.3276 40.9459 12.5822 41.0573 12.8516 41.0762C13.4821 41.0762 14.1177 41.0762 14.7482 41.0762C14.9956 41.0641 15.2323 40.9712 15.4216 40.8116C15.6109 40.652 15.7423 40.4347 15.7956 40.1932C15.8922 39.772 15.9532 39.3355 16.0244 38.9092C16.0278 38.8576 16.0473 38.8084 16.0801 38.7684C16.1129 38.7284 16.1574 38.6995 16.2074 38.6859C16.5582 38.5489 16.9091 38.4017 17.2548 38.2495C17.2908 38.2294 17.3323 38.2211 17.3733 38.2257C17.4143 38.2302 17.4529 38.2474 17.4836 38.2749C17.8039 38.5083 18.1344 38.7367 18.4598 38.9701C18.6851 39.138 18.962 39.2223 19.2428 39.2086C19.5047 39.2076 19.756 39.1058 19.9445 38.9245C20.3614 38.5337 20.758 38.1328 21.1597 37.7319C21.3949 37.5293 21.5419 37.2433 21.5694 36.9345C21.5969 36.6257 21.5028 36.3183 21.3071 36.0775C21.0885 35.7578 20.8597 35.438 20.6309 35.1234C20.6084 35.0905 20.5963 35.0516 20.5963 35.0118C20.5963 34.9719 20.6084 34.933 20.6309 34.9001C20.7885 34.5449 20.936 34.1947 21.0732 33.8344C21.0868 33.7905 21.1136 33.7518 21.15 33.7236C21.1864 33.6955 21.2306 33.6792 21.2766 33.6771L22.4461 33.4842C22.7197 33.4464 22.9714 33.314 23.1572 33.1099C23.3431 32.9059 23.4513 32.6433 23.463 32.3678C23.4121 31.7486 23.4121 31.1346 23.3968 30.5154ZM13.7363 35.5903C12.9125 35.5893 12.1075 35.3444 11.4232 34.8866C10.7388 34.4289 10.2059 33.7788 9.8918 33.0187C9.5777 32.2585 9.49656 31.4225 9.65863 30.6163C9.82071 29.8101 10.2187 29.07 10.8023 28.4897C11.3859 27.9093 12.1288 27.5148 12.9372 27.356C13.7455 27.1971 14.5828 27.2812 15.3432 27.5975C16.1037 27.9138 16.753 28.4481 17.2091 29.1328C17.6652 29.8175 17.9076 30.6219 17.9056 31.4441C17.907 32.5456 17.4702 33.6025 16.6913 34.3828C15.9125 35.163 14.8551 35.6028 13.7516 35.6055L13.7363 35.5903Z" fill="white" stroke="#093F68" stroke-width="2.03" stroke-linecap="round" stroke-linejoin="round"/>
<path d="M22.0138 47.2827H5.66215C5.08368 47.2827 4.61475 47.7508 4.61475 48.3281V49.3076C4.61475 49.885 5.08368 50.353 5.66215 50.353H22.0138C22.5923 50.353 23.0612 49.885 23.0612 49.3076V48.3281C23.0612 47.7508 22.5923 47.2827 22.0138 47.2827Z" fill="white"/>
<path d="M22.0139 50.8605H5.66726C5.25368 50.8592 4.85743 50.6946 4.56499 50.4027C4.27255 50.1108 4.10766 49.7153 4.10632 49.3025V48.3281C4.10767 47.9158 4.27272 47.5208 4.5653 47.2298C4.85789 46.9387 5.25415 46.7752 5.66726 46.7752H22.0139C22.4265 46.7752 22.8222 46.9388 23.114 47.2301C23.4058 47.5213 23.5697 47.9163 23.5697 48.3281V49.3025C23.5697 49.7148 23.4059 50.1103 23.1143 50.4024C22.8227 50.6944 22.427 50.8591 22.0139 50.8605V50.8605ZM5.66726 47.7902C5.59605 47.7895 5.52542 47.803 5.45945 47.8297C5.39347 47.8564 5.33346 47.8959 5.28287 47.946C5.23228 47.996 5.19213 48.0555 5.16473 48.1211C5.13732 48.1867 5.12322 48.2571 5.12322 48.3281V49.3025C5.12322 49.4465 5.18054 49.5846 5.28256 49.6865C5.38459 49.7883 5.52297 49.8455 5.66726 49.8455H22.0139C22.1573 49.8442 22.2943 49.7864 22.3953 49.6847C22.4962 49.583 22.5528 49.4456 22.5528 49.3025V48.3281C22.5528 48.1855 22.496 48.0486 22.3949 47.9478C22.2939 47.8469 22.1568 47.7902 22.0139 47.7902H5.66726Z" fill="#093F68"/>
<path d="M5.42826 47.2827H15.7091V50.3276H5.42826C5.2125 50.3276 5.00558 50.2421 4.85302 50.0898C4.70045 49.9375 4.61475 49.731 4.61475 49.5157V48.0693C4.62135 47.8584 4.70997 47.6583 4.86182 47.5115C5.01368 47.3647 5.21684 47.2826 5.42826 47.2827V47.2827Z" fill="#FFBC0E"/>
<path d="M15.7091 50.8605H5.42829C5.07809 50.8592 4.74262 50.7197 4.49499 50.4726C4.24737 50.2254 4.10766 49.8906 4.10632 49.541V48.0947C4.10632 47.7448 4.2456 47.4091 4.49352 47.1617C4.74143 46.9143 5.07768 46.7752 5.42829 46.7752H15.7091C15.844 46.7752 15.9733 46.8287 16.0686 46.9239C16.164 47.019 16.2176 47.1481 16.2176 47.2827V50.353C16.2176 50.4876 16.164 50.6167 16.0686 50.7119C15.9733 50.807 15.844 50.8605 15.7091 50.8605V50.8605ZM5.42829 47.7902C5.34738 47.7902 5.26978 47.8223 5.21257 47.8794C5.15536 47.9365 5.12322 48.0139 5.12322 48.0947V49.5512C5.12322 49.6319 5.15536 49.7094 5.21257 49.7665C5.26978 49.8236 5.34738 49.8557 5.42829 49.8557H15.2007V47.8004L5.42829 47.7902Z" fill="#093F68"/>
<path d="M33.8964 74.489C33.8144 74.4888 33.7337 74.4689 33.6611 74.4309C33.5885 74.3929 33.5262 74.338 33.4794 74.2707C33.4407 74.2159 33.4132 74.1539 33.3986 74.0884C33.384 74.0229 33.3826 73.9551 33.3944 73.889C33.4062 73.8229 33.4311 73.7599 33.4675 73.7034C33.5039 73.647 33.5512 73.5983 33.6065 73.5603L36.8403 71.3324L33.6523 69.5664C33.5343 69.4991 33.4479 69.3877 33.4122 69.2569C33.3764 69.126 33.3942 68.9863 33.4616 68.8686C33.5291 68.7508 33.6406 68.6646 33.7717 68.6289C33.9028 68.5932 34.0428 68.611 34.1608 68.6783L38.0656 70.8401C38.1405 70.882 38.2036 70.9421 38.2489 71.0149C38.2943 71.0877 38.3204 71.1707 38.3249 71.2563C38.329 71.3424 38.3111 71.428 38.2729 71.5053C38.2346 71.5825 38.1773 71.6488 38.1063 71.6978L34.1862 74.4179C34.0989 74.47 33.9979 74.4947 33.8964 74.489Z" fill="#093F68"/>
<path d="M81.0954 74.489C80.9859 74.4903 80.8789 74.4563 80.7903 74.3921C80.7017 74.3279 80.6363 74.2368 80.6037 74.1324C80.5711 74.0281 80.5732 73.916 80.6096 73.8129C80.6459 73.7098 80.7147 73.6212 80.8056 73.5603L84.0342 71.3324L80.8463 69.5664C80.7878 69.533 80.7366 69.4886 80.6954 69.4355C80.6542 69.3824 80.6239 69.3217 80.6062 69.2569C80.5884 69.1921 80.5837 69.1245 80.5922 69.0578C80.6007 68.9912 80.6222 68.9269 80.6556 68.8686C80.689 68.8103 80.7336 68.7591 80.7868 68.718C80.84 68.6768 80.9008 68.6466 80.9657 68.6289C81.0306 68.6112 81.0984 68.6065 81.1651 68.615C81.2319 68.6234 81.2963 68.645 81.3547 68.6783L85.2596 70.8401C85.3345 70.882 85.3976 70.9421 85.4429 71.0149C85.4882 71.0877 85.5144 71.1707 85.5189 71.2563C85.523 71.3424 85.5051 71.428 85.4668 71.5053C85.4286 71.5825 85.3713 71.6488 85.3003 71.6978L81.3903 74.4179C81.3015 74.471 81.1987 74.4958 81.0954 74.489Z" fill="#093F68"/>
</svg>
