<svg width="73" height="71" viewBox="0 0 73 71" fill="none" xmlns="http://www.w3.org/2000/svg">
<path d="M36.5023 0.00227476C16.3371 0.00227476 0 16.3057 0 36.3988C0 52.4884 10.4579 66.1257 24.9516 70.9369C26.7836 71.2804 27.4452 70.1544 27.4452 69.1808C27.4452 68.3163 27.4246 66.0302 27.4109 62.9956C17.2519 65.1885 15.1119 58.1026 15.1119 58.1026C13.4488 53.9079 11.0488 52.7818 11.0488 52.7818C7.74533 50.5321 11.3111 50.5798 11.3111 50.5798C14.9705 50.8278 16.896 54.3219 16.896 54.3219C20.1515 59.8905 25.4375 58.28 27.5296 57.3428C27.849 54.9975 28.8003 53.3847 29.8361 52.4861C21.7325 51.5739 13.2115 48.4461 13.2115 34.4994C13.2115 30.5162 14.626 27.2724 16.9644 24.7246C16.5606 23.8125 15.3241 20.1046 17.2861 15.0909C17.2861 15.0909 20.3409 14.1196 27.3242 18.8238C30.2467 18.0163 33.3494 17.6137 36.4498 17.5932C39.5525 17.6137 42.6529 18.0186 45.5754 18.8238C52.5177 14.1196 55.5702 15.0909 55.5702 15.0909C57.5299 20.1046 56.2934 23.8102 55.9375 24.7246C58.2531 27.2724 59.6675 30.5185 59.6675 34.4994C59.6675 48.4779 51.1351 51.5603 43.0225 52.4497C44.291 53.5393 45.4796 55.78 45.4796 59.1808C45.4796 64.0489 45.4339 67.9706 45.4339 69.1557C45.4339 70.1021 46.0727 71.2394 47.9526 70.8732C62.5535 66.1121 73 52.4634 73 36.3966C73 16.3034 56.6629 0 36.4977 0L36.5023 0.00227476Z" fill="#6CD0E7"/>
</svg>
