<svg width="55" height="56" viewBox="0 0 55 56" fill="none" xmlns="http://www.w3.org/2000/svg">
<ellipse cx="27.5" cy="28.4164" rx="27.5" ry="27.4314" fill="#093F68"/>
<g clip-path="url(#clip0_6_32)">
<path d="M28 12.3525C19.161 12.3525 12 19.5016 12 28.3126C12 35.368 16.584 41.348 22.937 43.4577C23.74 43.6084 24.03 43.1146 24.03 42.6877C24.03 42.3086 24.021 41.3061 24.015 39.9754C19.562 40.937 18.624 37.8298 18.624 37.8298C17.895 35.9904 16.843 35.4966 16.843 35.4966C15.395 34.5101 16.958 34.5311 16.958 34.5311C18.562 34.6398 19.406 36.172 19.406 36.172C20.833 38.6138 23.15 37.9076 24.067 37.4966C24.207 36.4682 24.624 35.761 25.078 35.367C21.526 34.967 17.791 33.5954 17.791 27.4797C17.791 25.7331 18.411 24.3106 19.436 23.1934C19.259 22.7934 18.717 21.1675 19.577 18.969C19.577 18.969 20.916 18.543 23.977 20.6059C25.258 20.2518 26.618 20.0752 27.977 20.0662C29.337 20.0752 30.696 20.2528 31.977 20.6059C35.02 18.543 36.358 18.969 36.358 18.969C37.217 21.1675 36.675 22.7924 36.519 23.1934C37.534 24.3106 38.154 25.7341 38.154 27.4797C38.154 33.6094 34.414 34.961 30.858 35.351C31.414 35.8288 31.935 36.8114 31.935 38.3026C31.935 40.4373 31.915 42.157 31.915 42.6767C31.915 43.0916 32.195 43.5904 33.019 43.4298C39.419 41.342 43.998 35.357 43.998 28.3116C43.998 19.5007 36.837 12.3515 27.998 12.3515L28 12.3525Z" fill="white"/>
</g>
<defs>
<clipPath id="clip0_6_32">
<rect width="32" height="31.9202" fill="white" transform="translate(12 11.9576)"/>
</clipPath>
</defs>
</svg>
