<svg width="55" height="56" viewBox="0 0 55 56" fill="none" xmlns="http://www.w3.org/2000/svg">
<ellipse cx="27.5" cy="28.4164" rx="27.5" ry="27.4314" fill="#093F68"/>
<g clip-path="url(#clip0_6_27)">
<path d="M31.7823 23.5346C30.7404 23.531 29.7079 23.7324 28.7441 24.1273C27.7803 24.5221 26.9039 25.1027 26.1653 25.8357C25.4266 26.5688 24.8401 27.4399 24.4393 28.3993C24.0385 29.3587 23.8312 30.3875 23.8295 31.4269V39.4006C23.8295 39.7243 23.9584 40.0347 24.1878 40.2636C24.4173 40.4925 24.7285 40.6211 25.053 40.6211H27.9079C28.2324 40.6211 28.5436 40.4925 28.773 40.2636C29.0025 40.0347 29.1314 39.7243 29.1314 39.4006V31.4269C29.1311 31.0572 29.2089 30.6917 29.3598 30.354C29.5107 30.0164 29.7312 29.7142 30.007 29.4673C30.2827 29.2204 30.6076 29.0342 30.9603 28.9209C31.3131 28.8075 31.6858 28.7697 32.0542 28.8097C32.7149 28.8927 33.3221 29.2147 33.7606 29.7146C34.1992 30.2145 34.4385 30.8576 34.4333 31.5218V39.4006C34.4333 39.7243 34.5622 40.0347 34.7916 40.2636C35.0211 40.4925 35.3323 40.6211 35.6568 40.6211H38.5117C38.8362 40.6211 39.1474 40.4925 39.3768 40.2636C39.6063 40.0347 39.7352 39.7243 39.7352 39.4006V31.4269C39.7334 30.3875 39.5262 29.3587 39.1254 28.3993C38.7246 27.4399 38.1381 26.5688 37.3994 25.8357C36.6607 25.1027 35.7844 24.5221 34.8206 24.1273C33.8567 23.7324 32.8243 23.531 31.7823 23.5346Z" fill="white"/>
<path d="M20.1589 24.755H16.4884C15.8126 24.755 15.2649 25.3014 15.2649 25.9755V39.4006C15.2649 40.0746 15.8126 40.621 16.4884 40.621H20.1589C20.8347 40.621 21.3824 40.0746 21.3824 39.4006V25.9755C21.3824 25.3014 20.8347 24.755 20.1589 24.755Z" fill="white"/>
<path d="M18.3237 22.3131C20.013 22.3131 21.3824 20.9473 21.3824 19.2624C21.3824 17.5776 20.013 16.2118 18.3237 16.2118C16.6343 16.2118 15.2649 17.5776 15.2649 19.2624C15.2649 20.9473 16.6343 22.3131 18.3237 22.3131Z" fill="white"/>
</g>
<defs>
<clipPath id="clip0_6_27">
<rect width="32.6271" height="32.5457" fill="white" transform="translate(11.1865 12.1436)"/>
</clipPath>
</defs>
</svg>
