<svg width="72" height="71" viewBox="0 0 72 71" fill="none" xmlns="http://www.w3.org/2000/svg">
<ellipse cx="35.5888" cy="35.5" rx="35.5888" ry="35.5" fill="#6CD0E7"/>
<path d="M41.1308 29.1822C39.7824 29.1776 38.4463 29.4382 37.1989 29.9493C35.9516 30.4603 34.8175 31.2116 33.8616 32.1603C32.9056 33.1089 32.1466 34.2363 31.6279 35.4779C31.1092 36.7195 30.8411 38.0509 30.8387 39.396V49.7151C30.8387 50.1339 31.0056 50.5357 31.3025 50.8319C31.5995 51.1281 32.0022 51.2945 32.4221 51.2945H36.1167C36.5367 51.2945 36.9394 51.1281 37.2364 50.8319C37.5333 50.5357 37.7001 50.1339 37.7001 49.7151V39.396C37.6998 38.9176 37.8005 38.4445 37.9958 38.0075C38.191 37.5706 38.4764 37.1796 38.8333 36.86C39.1902 36.5404 39.6106 36.2995 40.0671 36.1528C40.5236 36.0062 41.0059 35.9572 41.4827 36.0089C42.3378 36.1164 43.1235 36.5331 43.6911 37.18C44.2586 37.827 44.5683 38.6592 44.5615 39.5188V49.7151C44.5615 50.1339 44.7284 50.5357 45.0253 50.8319C45.3223 51.1281 45.725 51.2945 46.1449 51.2945H49.8395C50.2595 51.2945 50.6622 51.1281 50.9592 50.8319C51.2561 50.5357 51.4229 50.1339 51.4229 49.7151V39.396C51.4206 38.0509 51.1525 36.7195 50.6338 35.4779C50.1151 34.2363 49.356 33.1089 48.4001 32.1603C47.4442 31.2116 46.3101 30.4603 45.0627 29.9493C43.8154 29.4382 42.4793 29.1776 41.1308 29.1822Z" fill="#093F68"/>
<path d="M26.0885 30.7617H21.3383C20.4638 30.7617 19.7549 31.4688 19.7549 32.3411V49.7151C19.7549 50.5874 20.4638 51.2945 21.3383 51.2945H26.0885C26.963 51.2945 27.6719 50.5874 27.6719 49.7151V32.3411C27.6719 31.4688 26.963 30.7617 26.0885 30.7617Z" fill="#093F68"/>
<path d="M23.7134 27.6015C25.8996 27.6015 27.6719 25.8339 27.6719 23.6535C27.6719 21.4731 25.8996 19.7055 23.7134 19.7055C21.5272 19.7055 19.7549 21.4731 19.7549 23.6535C19.7549 25.8339 21.5272 27.6015 23.7134 27.6015Z" fill="#093F68"/>
</svg>
