<svg width="57" height="57" viewBox="0 0 57 57" fill="none" xmlns="http://www.w3.org/2000/svg">
<path fill-rule="evenodd" clip-rule="evenodd" d="M32.9638 9.91094L29.0094 8.93838C28.1289 10.0446 27.417 11.2752 26.8969 12.5899L29.7112 15.529C29.3827 17.0337 29.3827 18.5915 29.7112 20.0961L26.8969 23.0352C27.4205 24.3604 28.1366 25.5895 29.0094 26.6868L32.9638 25.7142C34.086 26.7402 35.4326 27.5275 36.9146 27.9978L38.0475 31.9058C39.4469 32.1155 40.8697 32.1155 42.269 31.9058L43.4019 27.9978C44.8698 27.5319 46.2191 26.7527 47.3563 25.7142L51.3107 26.6868C52.1835 25.5895 52.8995 24.3604 53.4232 23.0352L50.6017 20.0961C50.9303 18.5915 50.9303 17.0337 50.6017 15.529L53.4232 12.5899C52.9031 11.2752 52.1912 10.0446 51.3107 8.93838L47.3563 9.91094C46.2191 8.87239 44.8698 8.09324 43.4019 7.62738L42.269 3.71932C40.8697 3.50893 39.4468 3.50893 38.0475 3.71932L36.9146 7.62738C35.4465 8.09293 34.0972 8.87211 32.9602 9.91094H32.9638ZM43.7225 17.8126C43.7225 18.7574 43.3472 19.6635 42.6791 20.3316C42.011 20.9997 41.1049 21.3751 40.16 21.3751C39.2152 21.3751 38.3091 20.9997 37.641 20.3316C36.9729 19.6635 36.5975 18.7574 36.5975 17.8126C36.5975 16.8677 36.9729 15.9616 37.641 15.2935C38.3091 14.6254 39.2152 14.2501 40.16 14.2501C41.1049 14.2501 42.011 14.6254 42.6791 15.2935C43.3472 15.9616 43.7225 16.8677 43.7225 17.8126Z" fill="#15CDC1"/>
<path fill-rule="evenodd" clip-rule="evenodd" d="M24.6346 22.3156C23.2349 21.8536 21.7786 21.5851 20.3062 21.5176L18.7209 24.788C17.0298 24.9008 15.378 25.3489 13.8616 26.1061L10.8335 24.0968C9.60444 24.902 8.48225 25.8745 7.51325 26.9825L9.08075 30.26C8.11888 31.6529 7.43488 33.2275 7.08575 34.8841L3.62657 35.9956C3.48558 37.4612 3.54671 38.9392 3.80825 40.3881L7.35294 41.2075C7.83744 42.832 8.64613 44.3425 9.722 45.6535L8.43238 49.0521C9.494 50.0746 10.6839 50.9474 11.9806 51.6456L14.8306 49.3906C16.404 50.0218 18.0874 50.3331 19.7825 50.3061L21.6386 53.4305C23.0956 53.2416 24.5242 52.8533 25.8779 52.2762L25.8922 48.6425C27.3661 47.8052 28.6584 46.6825 29.6934 45.34L33.2915 45.8388C34.0574 44.5812 34.6453 43.2203 35.0371 41.8025L32.2014 39.526C32.465 37.8509 32.3948 36.1401 31.9948 34.4922L34.6274 31.9949C34.1189 30.6117 33.4225 29.305 32.5576 28.1118L29.0129 28.9098C27.8684 27.6597 26.4866 26.6497 24.9481 25.9386L24.6346 22.3156ZM20.5378 32.3618C21.2283 32.4756 21.8891 32.7259 22.4817 33.0982C23.0742 33.4705 23.5866 33.9573 23.9887 34.53C24.3908 35.1027 24.6747 35.7499 24.8236 36.4337C24.9726 37.1174 24.9837 37.8241 24.8562 38.5122C24.7287 39.2002 24.4652 39.856 24.0812 40.441C23.6972 41.0261 23.2004 41.5286 22.6198 41.9193C22.0391 42.3099 21.3864 42.5808 20.6998 42.7162C20.0132 42.8515 19.3066 42.8485 18.6211 42.7073C17.2488 42.4527 16.0337 41.6633 15.2434 40.5129C14.453 39.3624 14.1521 37.9451 14.4067 36.5727C14.6613 35.2003 15.4507 33.9853 16.6012 33.195C17.7516 32.4046 19.1689 32.1036 20.5413 32.3583L20.5378 32.3618Z" fill="#F6AE2D"/>
</svg>
