<svg width="77" height="77" viewBox="0 0 77 77" fill="none" xmlns="http://www.w3.org/2000/svg">
<path fill-rule="evenodd" clip-rule="evenodd" d="M44.53 13.3883L39.1882 12.0745C37.9987 13.5689 37.037 15.2312 36.3344 17.0073L40.1362 20.9776C39.6924 23.0102 39.6924 25.1147 40.1362 27.1473L36.3344 31.1176C37.0418 32.9078 38.0091 34.5681 39.1882 36.0504L44.53 34.7366C46.046 36.1226 47.8651 37.1861 49.8671 37.8214L51.3975 43.1007C53.2879 43.3839 55.2099 43.3839 57.1003 43.1007L58.6307 37.8214C60.6137 37.1921 62.4363 36.1395 63.9725 34.7366L69.3144 36.0504C70.4935 34.5681 71.4608 32.9078 72.1682 31.1176L68.3567 27.1473C68.8005 25.1147 68.8005 23.0102 68.3567 20.9776L72.1682 17.0073C71.4656 15.2312 70.5039 13.5689 69.3144 12.0745L63.9725 13.3883C62.4363 11.9854 60.6137 10.9328 58.6307 10.3035L57.1003 5.0242C55.21 4.73998 53.2878 4.73998 51.3975 5.0242L49.8671 10.3035C47.8839 10.9324 46.0612 11.985 44.5252 13.3883H44.53ZM59.0638 24.0624C59.0638 25.3388 58.5568 26.5629 57.6542 27.4654C56.7517 28.3679 55.5276 28.8749 54.2513 28.8749C52.9749 28.8749 51.7509 28.3679 50.8483 27.4654C49.9458 26.5629 49.4388 25.3388 49.4388 24.0624C49.4388 22.7861 49.9458 21.562 50.8483 20.6595C51.7509 19.757 52.9749 19.2499 54.2513 19.2499C55.5276 19.2499 56.7517 19.757 57.6542 20.6595C58.5568 21.562 59.0638 22.7861 59.0638 24.0624Z" fill="#15CDC1"/>
<path fill-rule="evenodd" clip-rule="evenodd" d="M33.2784 30.1454C31.3876 29.5213 29.4203 29.1586 27.4312 29.0674L25.2897 33.4853C23.0052 33.6377 20.7738 34.243 18.7254 35.2659L14.6348 32.5516C12.9745 33.6393 11.4586 34.9531 10.1496 36.4498L12.2671 40.8773C10.9677 42.7589 10.0437 44.8861 9.57205 47.1239L4.89912 48.6254C4.70866 50.6052 4.79124 52.6018 5.14455 54.5592L9.93299 55.6661C10.5875 57.8606 11.6799 59.9011 13.1333 61.6721L11.3912 66.2632C12.8253 67.6444 14.4327 68.8234 16.1844 69.7667L20.0344 66.7204C22.1599 67.5731 24.434 67.9936 26.7238 67.9572L29.2311 72.1778C31.1994 71.9227 33.1292 71.3981 34.958 70.6185L34.9772 65.7098C36.9684 64.5787 38.714 63.0621 40.1122 61.2486L44.9728 61.9223C46.0075 60.2235 46.8015 58.3851 47.3309 56.4698L43.5002 53.3946C43.8564 51.1316 43.7615 48.8206 43.2211 46.5945L46.7775 43.2209C46.0906 41.3524 45.1497 39.5873 43.9814 37.9753L39.193 39.0533C37.6468 37.3646 35.7803 36.0003 33.7019 35.0397L33.2784 30.1454ZM27.7441 43.7166C28.6768 43.8703 29.5696 44.2085 30.37 44.7114C31.1705 45.2143 31.8626 45.8719 32.4059 46.6456C32.9491 47.4193 33.3325 48.2935 33.5338 49.2172C33.735 50.1409 33.7499 51.0954 33.5777 52.025C33.4055 52.9545 33.0496 53.8403 32.5309 54.6306C32.0121 55.421 31.3409 56.0998 30.5566 56.6276C29.7722 57.1553 28.8905 57.5213 27.963 57.7041C27.0355 57.8869 26.0808 57.8828 25.1549 57.6921C23.301 57.3482 21.6597 56.2818 20.592 54.7277C19.5243 53.1735 19.1178 51.2589 19.4617 49.405C19.8057 47.5511 20.8721 45.9098 22.4262 44.8421C23.9803 43.7744 25.895 43.3678 27.7489 43.7118L27.7441 43.7166Z" fill="#F6AE2D"/>
</svg>
