<svg width="14" height="14" viewBox="0 0 14 14" fill="none" xmlns="http://www.w3.org/2000/svg">
<g clip-path="url(#clip0_85_732)">
<path d="M3.2198 13.4562C3.10301 13.4562 2.98601 13.4276 2.87792 13.3699C2.64979 13.2482 2.50654 13.0213 2.49475 12.7629L2.42598 11.2564H1.22852C0.551111 11.2564 0 10.7053 0 10.0279V1.77201C0 1.09457 0.551111 0.543457 1.22852 0.543457H12.7715C13.4489 0.543457 14 1.09457 14 1.77198V10.0279C14 10.7053 13.4489 11.2564 12.7715 11.2564H11.2447C11.0044 11.2564 10.8095 11.0615 10.8095 10.8211C10.8095 10.5807 11.0044 10.3858 11.2447 10.3858H12.7715C12.9688 10.3858 13.1294 10.2253 13.1294 10.0278V1.77201C13.1294 1.57461 12.9689 1.41402 12.7715 1.41402H1.22852C1.03116 1.41402 0.87054 1.57459 0.87054 1.77201V10.0279C0.87054 10.2253 1.0311 10.3859 1.22852 10.3859H2.84185C3.07455 10.3859 3.26609 10.5689 3.27664 10.8013L3.35326 12.479L6.70179 10.449C6.76982 10.4077 6.84786 10.3859 6.92748 10.3859H9.4606C9.70095 10.3859 9.89588 10.5808 9.89588 10.8212C9.89588 11.0616 9.70098 11.2564 9.4606 11.2564H7.04916L3.59558 13.3502C3.4791 13.4208 3.3496 13.4562 3.2198 13.4562Z" fill="white"/>
<path d="M13.0993 2.3517L7.42056 6.68165C7.17214 6.87103 6.82781 6.87103 6.57939 6.68165L0.900633 2.3517C0.372764 1.9492 0.657412 1.10645 1.32121 1.10645H12.6787C13.3425 1.10647 13.6272 1.94926 13.0993 2.3517Z" fill="white"/>
<path d="M6.99997 7.25869C6.75406 7.25869 6.51098 7.17655 6.31539 7.02747L0.636718 2.69758C0.245294 2.3991 0.0941382 1.90492 0.251665 1.43857C0.409137 0.972253 0.829026 0.670898 1.32124 0.670898H12.6787C13.171 0.670898 13.5908 0.972253 13.7483 1.43857C13.9058 1.90492 13.7546 2.3991 13.3632 2.69758L7.68446 7.0275C7.48901 7.17655 7.24589 7.25869 6.99997 7.25869ZM1.32127 1.54141C1.15387 1.54141 1.09431 1.66429 1.07646 1.71712C1.0586 1.76992 1.03151 1.90377 1.16456 2.00527L6.84334 6.33522C6.90068 6.37897 6.96021 6.38815 6.99999 6.38815C7.03978 6.38815 7.09928 6.37897 7.15662 6.33527L12.8355 2.0053C12.9686 1.9038 12.9414 1.76998 12.9236 1.71715C12.9057 1.66429 12.8462 1.54144 12.6787 1.54144L1.32127 1.54141Z" fill="white"/>
</g>
<defs>
<clipPath id="clip0_85_732">
<rect width="14" height="14" fill="white"/>
</clipPath>
</defs>
</svg>
